<?xml version="1.0" standalone="no"?>
<!DOCTYPE svg PUBLIC "-//W3C//DTD SVG 1.1//EN" "http://www.w3.org/Graphics/SVG/1.1/DTD/svg11.dtd" >
<!--
2013-9-30: Created.
-->
<svg>
<metadata>
Created by iconfont
</metadata>
<defs>

<font id="iconfont" horiz-adv-x="1024" >
  <font-face
    font-family="iconfont"
    font-weight="500"
    font-stretch="normal"
    units-per-em="1024"
    ascent="896"
    descent="-128"
  />
    <missing-glyph />
    
    <glyph glyph-name="screen-shot" unicode="&#58882;" d="M696.22897777 823.67146666q18.56853333 33.86026667 30.58346667 49.69813334t18.56853333 21.2992 18.0224 2.18453333 18.0224-16.384 5.46133333-36.59093333-7.64586666-67.1744q-3.2768-21.84533333-15.29173334-49.152t-26.2144-54.0672-27.8528-49.69813334-21.2992-34.95253333q-8.73813333-12.01493333-25.12213333-33.86026667l-32.768-43.69066666q-19.6608-25.12213333-40.41386667-52.4288 12.01493333-19.6608 24.02986667-37.13706667 9.8304-15.29173333 19.11466667-30.03733333t14.7456-23.48373334q17.47626667-28.39893333 50.7904-55.7056t66.08213333-43.69066666q16.384-8.73813333 48.05973333-18.56853334t62.2592-30.03733333 52.97493334-55.7056 19.11466666-95.57333333q-2.18453333-48.05973333-21.84533333-82.46613334t-49.152-55.7056-66.08213333-29.4912-72.0896-3.2768-67.1744 23.48373334-51.33653334 51.33653333q-19.6608 30.58346667-26.76053333 60.6208t-7.09973333 60.6208 4.9152 62.2592 10.37653333 64.44373333q3.2768 18.56853333 2.73066667 31.1296t-3.2768 21.84533334-7.09973334 15.83786666l-8.73813333 13.1072q-4.36906667 6.5536-13.1072 19.11466667t-17.47626667 24.576q-10.92266667 14.19946667-22.9376 29.4912l-17.47626666-24.02986667q-8.73813333-10.92266667-18.0224-24.02986666t-18.0224-25.12213334q-18.56853333-25.12213333-20.20693334-40.96t3.82293334-37.6832q3.2768-10.92266667 8.192-39.86773333t3.2768-66.62826667-13.1072-79.18933333-42.05226667-78.6432q-26.2144-31.67573333-60.07466667-46.96746667t-68.26666666-16.384-67.72053334 10.92266667-59.52853333 33.86026667-42.5984 53.52106666-17.47626667 69.90506667q-2.18453333 57.89013333 19.6608 95.57333333t53.52106667 61.71306667 66.08213333 37.6832 58.43626667 22.39146667q22.9376 8.73813333 38.77546667 16.93013333t27.30666666 16.384 19.11466667 16.93013333 16.384 18.56853334 20.20693333 26.76053333 23.48373334 34.4064q13.1072 19.6608 27.30666666 42.5984-8.73813333 12.01493333-20.75306666 27.30666667-9.8304 13.1072-24.576 31.1296t-32.22186667 39.86773333q-17.47626667 22.9376-36.0448 54.0672t-34.4064 61.71306667-27.8528 56.79786666-16.384 38.22933334-8.73813333 31.1296-5.46133334 37.6832 2.18453334 34.4064 13.1072 22.39146666q9.8304 5.46133333 16.93013333 4.9152t12.56106667-5.46133333 10.37653333-13.1072 12.56106667-19.11466667q3.2768-5.46133333 13.65333333-21.2992t25.12213333-38.22933333 32.22186667-49.69813333l34.95253333-54.61333334q41.50613333-64.44373333 92.84266667-144.1792 38.22933333 65.536 72.0896 121.2416l28.39893333 48.05973334q14.19946667 24.02986667 26.76053334 44.78293333t21.84533333 36.59093333 14.7456 24.576zM283.35217777 167.2192q-40.41386667 0-68.26666667-27.8528t-27.8528-67.1744 27.8528-67.72053334 68.26666667-28.39893333q39.3216 0 67.1744 28.39893333t27.8528 67.72053334-27.8528 67.1744-67.1744 27.8528zM769.41084444 167.2192q-39.3216 0-67.72053334-27.8528t-28.39893333-67.1744q0-19.6608 7.64586667-37.13706667t20.75306666-30.58346667 30.58346667-20.75306666 37.13706667-7.64586667q39.3216 0 67.1744 28.39893333t27.8528 67.72053334-27.8528 67.1744-67.1744 27.8528z"  horiz-adv-x="1024" />

    
    <glyph glyph-name="info-query" unicode="&#58880;" d="M490.892 853.319c-271.113 0-490.892-219.782-490.892-490.895s219.779-490.897 490.892-490.897c271.112 0 490.892 219.782 490.892 490.895s-219.778 490.897-490.892 490.897zM426.863 665.341c0 9.43 7.644 17.074 17.075 17.074h93.91c9.43 0 17.074-7.645 17.074-17.074v-93.91c0-9.43-7.644-17.075-17.074-17.075h-93.911c-9.431 0-17.075 7.645-17.075 17.075l-0 93.91zM640.295 61.314c0-9.43-7.645-17.074-17.077-17.074l-264.654 0c-9.43 0-17.074 7.644-17.074 17.074v51.227c0 9.43 7.645 17.074 17.074 17.074h68.299v256.117h-68.298c-9.431 0-17.075 7.645-17.075 17.075v51.224c0 9.43 7.644 17.075 17.075 17.075h179.284c9.43 0 17.074-7.644 17.074-17.075v-324.417h68.298c9.431 0 17.077-7.644 17.077-17.074l0-51.227z"  horiz-adv-x="1024" />

    
    <glyph glyph-name="draw-circle" unicode="&#58881;" d="M90.125 384c0-232.995 188.88-421.875 421.875-421.875s421.875 188.88 421.875 421.875c0 232.995-188.88 421.875-421.875 421.875-232.995 0-421.875-188.88-421.875-421.875z"  horiz-adv-x="1024" />

    
    <glyph glyph-name="draw-circlemarker" unicode="&#58968;" d="M951.425 384c0-248.5125-196.70625-450-439.425-450s-439.425 201.4875-439.425 450S269.3375 834 512 834 951.425 632.5125 951.425 384zM512 676.5C354.275 676.5 226.3625 545.55 226.3625 384c0-161.55 127.85625-292.5 285.6375-292.5s285.6375 130.95 285.6375 292.5C797.6375 545.55 669.725 676.5 512 676.5z"  horiz-adv-x="1024" />

    
    <glyph glyph-name="arrow-right" unicode="&#58917;" d="M511.699 833.001c-247.539 0-448.209-200.668-448.209-448.207s200.67-448.208 448.209-448.208 448.208 200.67 448.208 448.208-200.669 448.207-448.208 448.207zM724.462 365.46c-0.678-1.481-1.473-2.617-1.939-3.267-0.218-0.39-0.434-0.801-0.653-1.216-1.258-2.382-2.927-5.544-5.808-8.56l-0.189-0.192c-0.179-0.182-0.351-0.346-0.513-0.497-0.575-0.824-1.209-1.585-1.889-2.267l-262.157-252.673c-9.377-9.018-21.685-13.985-34.663-13.985-13.719 0-26.497 5.435-35.977 15.299-19.086 19.818-18.5 51.495 1.309 70.606l225.702 217.538-226.536 214.303c-19.995 18.932-20.876 50.611-1.967 70.617 9.415 9.928 22.651 15.619 36.315 15.619 12.812 0 24.995-4.846 34.305-13.647l264.368-250.049c15.588-14.721 19.725-37.882 10.292-57.63z"  horiz-adv-x="1024" />

    
    <glyph glyph-name="arrow-left" unicode="&#58883;" d="M510.904 833.578c247.683 0 448.463-200.815 448.463-448.548 0-247.73-200.78-448.547-448.463-448.547-247.682 0-448.461 200.817-448.461 448.547 0 247.734 200.779 448.548 448.461 448.548v0zM298.001 365.668c0.684-1.494 1.455-2.63 1.957-3.266 0.209-0.395 0.423-0.82 0.636-1.197 1.24-2.38 2.94-5.533 5.82-8.594l0.167-0.166 0.5-0.501c0.559-0.81 1.211-1.591 1.877-2.266l262.321-252.867c9.396-9.050 21.7-14.013 34.687-14.013 13.714 0 26.521 5.434 35.977 15.309 19.109 19.826 18.502 51.535-1.304 70.678l-225.844 217.702 226.648 214.461c20.005 18.947 20.882 50.64 1.985 70.678-9.427 9.93-22.657 15.642-36.341 15.642-12.836 0-24.99-4.863-34.309-13.654l-264.535-250.246c-15.592-14.717-19.743-37.912-10.273-57.662l0.030-0.037zM298.001 365.668z"  horiz-adv-x="1024" />

    
    <glyph glyph-name="sync" unicode="&#59025;" d="M44.697 383.625c0-128.611 52.612-245.531 140.303-327.376l-140.303-140.303h350.761v350.761l-128.611-128.611c-64.308 58.459-105.228 146.148-105.228 245.531 0 151.996 99.381 280.608 233.84 333.221v116.921c-198.764-52.614-350.761-233.84-350.761-450.143zM980.055 851.303h-350.761v-350.761l128.611 128.611c64.306-58.459 105.228-146.148 105.228-245.531 0-151.996-99.381-280.608-233.84-333.221v-122.766c198.764 52.612 350.761 233.84 350.761 450.143 0 128.611-52.612 245.531-140.303 327.376l140.303 146.148z"  horiz-adv-x="1024" />

    
    <glyph glyph-name="plus" unicode="&#59442;" d="M933.8676875 496.50225l-309.36543838 0 0 309.36543838c0 15.53306836-12.59924414 28.1323125-28.1323125 28.1323125l-168.73987588 0c-15.53306836 0-28.1323125-12.59924414-28.1323125-28.1323125l0-309.36543838-309.36543837 0c-15.53306836 0-28.1323125-12.59924414-28.1323125-28.1323125l0-168.73987588c0-15.53306836 12.59924414-28.1323125 28.1323125-28.1323125l309.36543837 0 0-309.36543838c0-15.53306836 12.59924414-28.1323125 28.1323125-28.1323125l168.73987588 0c15.53306836 0 28.1323125 12.59924414 28.1323125 28.1323125l0 309.36543838 309.36543838 0c15.53306836 0 28.1323125 12.59924414 28.1323125 28.1323125l0 168.73987588c0 15.53306836-12.59924414 28.1323125-28.1323125 28.1323125z"  horiz-adv-x="1024" />

    
    <glyph glyph-name="draw-old2" unicode="&#59217;" d="M850.535 805.875q32.959 0 57.678-21.893t24.719-54.852q0-29.663-21.188-71.097-156.32-296.161-218.942-354.073-45.672-42.847-102.643-42.847-59.326 0-101.937 43.553t-42.611 103.351q0 60.268 43.317 99.819l300.397 272.617q27.78 25.425 61.209 25.425zM422.541 319.024q18.363-35.784 50.144-61.209t70.862-35.784l0.471-33.429q1.883-100.289-60.974-163.383t-164.089-63.092q-57.914 0-102.643 21.893t-71.804 60.032-40.729 86.164-13.654 103.585q3.296-2.354 19.305-14.125t29.193-20.953 27.78-17.185 21.659-8.004q19.305 0 25.897 17.422 11.771 31.075 27.073 52.97t32.723 35.784 41.435 22.366 48.496 12.006 58.856 4.943z"  horiz-adv-x="1024" />

    
    <glyph glyph-name="minus" unicode="&#59772;" d="M62 496.5l0-225 900 0 0 225-900 0z"  horiz-adv-x="1024" />

    
    <glyph glyph-name="layers-line" unicode="&#59282;" d="M63.26 533.007l-0.72-0.9 411.42-202.5 0.72 0.9c10.86-6.36 23.22-10.98 37.32-10.98s26.4 4.62 37.32 10.98l0.72-0.9 411.42 202.5-0.72 0.9c18.36 10.8 31.26 28.26 31.26 49.020s-12.9 38.22-31.26 48.96l0.72 0.96-411.42 202.5-0.72-0.9c-10.92 6.36-23.22 9.12-37.32 9.12s-26.46-4.62-37.38-10.98l-0.66 0.9-411.42-200.64 0.72-0.96c-18.42-10.74-31.26-28.14-31.26-48.96s12.84-38.22 31.26-49.020zM512 712.407l287.82-130.38-287.82-130.38-287.82 130.38 287.82 130.38zM923.42 420.807c-27.66 0-38.1-11.94-38.1-11.94l-373.32-178.5-374.1 181.26c-10.92 6.42-23.34 7.5-37.32 9.18-47.28 5.58-68.58-26.88-68.58-60 0-20.82 12.84-38.22 31.26-48.96l410.7-203.46 0.72 0.96c10.86-6.48 23.22-11.040 37.32-11.040s26.4 4.56 37.32 11.040l0.72-0.96 410.76 197.76c18.3 10.8 31.2 31.98 31.2 52.74 0 33.18-30.72 61.92-68.58 61.92zM923.42 205.167c-27.66 0-38.1-11.94-38.1-11.94l-373.32-178.5-374.1 181.26c-10.92 6.36-23.34 7.5-37.38 9.12-47.22 5.7-68.52-26.76-68.52-59.94 0-20.82 12.84-38.22 31.26-48.96l410.7-203.46 0.72 0.96c10.86-6.42 23.22-11.040 37.32-11.040s26.4 4.62 37.32 11.040l0.72-0.96 410.76 197.82c18.3 10.8 31.2 31.92 31.2 52.74 0 33.12-30.72 61.86-68.58 61.86z"  horiz-adv-x="1024" />

    
    <glyph glyph-name="settingbar" unicode="&#58929;" d="M972.765 672.008h-921.592c-10.577 0-19.173 8.598-19.173 19.173 0 10.627 8.596 19.223 19.173 19.223h921.591c10.638 0 19.235-8.596 19.235-19.223 0.001-10.575-8.596-19.173-19.233-19.173zM972.765 364.79h-921.592c-10.577 0-19.173 8.598-19.173 19.199s8.596 19.197 19.173 19.197h921.591c10.638 0 19.235-8.596 19.235-19.197s-8.596-19.199-19.233-19.199zM972.765 57.597h-921.592c-10.577 0-19.173 8.596-19.173 19.197 0 10.578 8.596 19.199 19.173 19.199h921.591c10.638 0 19.235-8.621 19.235-19.199 0.001-10.601-8.596-19.197-19.233-19.197zM716.804 691.181c0-42.452-34.436-76.792-76.852-76.792-42.394 0-76.781 34.34-76.781 76.792 0 42.405 34.387 76.817 76.781 76.817 42.417-0 76.852-34.412 76.852-76.817zM358.391 383.988c0-42.454-34.436-76.792-76.792-76.792-42.417 0-76.841 34.339-76.841 76.792 0 42.38 34.424 76.817 76.841 76.817 42.356 0 76.792-34.436 76.792-76.817zM614.365 76.795c0-42.452-34.387-76.792-76.792-76.792-42.404 0-76.791 34.34-76.791 76.792 0 42.405 34.387 76.792 76.791 76.792 42.404 0 76.792-34.387 76.792-76.792z"  horiz-adv-x="1024" />

    
    <glyph glyph-name="freedraw-0" unicode="&#59725;" d="M514.51313084 84.85464382999999c142.69609119 14.16742685 161.80692765-41.1490568 276.27863214-34.18961905 81.4143752 4.97102697 193.20724836 113.6984331 193.20724837 113.6984331l0-142.55800684c0 0-89.45086798-70.31241418-194.0081359-73.57119906-147.66711815-4.58439126-150.45641648 58.79620252-247.86092761 50.42830632-135.62618524-11.65429601-115.76969474-80.8068055-248.55134815-87.32437405-139.29922196-6.8213534-222.31537223 122.20441244-243.16606934 159.10048017-4.03205507 4.58439126-7.34607345 9.88682043-9.03069938 16.21107112-5.63383015 21.04401374 6.26901721 42.19849569 26.45690988 49.32363394l47.41807401 193.37294886c0.44186919 1.57415894 1.49130809 2.73406483 2.07126163 4.17013942 0.13808435 0.3866357 0.3866357 0.69042054 0.5523362 1.07705625 2.07126164 4.88817611 4.86055997 9.11354902 8.45074584 12.73135224 0.08285085 0.08285085 0.110467 0.19331786 0.19331785 0.2761687L609.70829718 830.81247312c1.98841078 5.13672746 5.02626046 9.91443658 9.16878252 14.05695985 12.23424956 12.26186691 30.26803098 15.16163223 45.31919621 8.80976418 6.26901721-1.90555993 12.23424956-4.83294261 17.17766039-9.77635344 2.59598048-2.59598048 4.05967243-5.74429836 5.827148-8.75453068l148.32992134-148.32992134c3.01023354-1.73985943 6.18616635-3.23116752 8.75453069-5.79953186 4.99864432-4.99864432 7.87079229-10.99149281 9.80396958-17.31574352 6.15855021-14.99593174 3.17593403-32.86401146-8.9754659-45.04302751-4.03205507-4.03205507-8.67167983-7.06990475-13.67032414-9.08593289L412.99371259 191.09653648000005l0 0 0 0-65.00998622-65.00998622c-0.71803668-0.71803668-1.71224208-0.96658804-2.48551348-1.65700857-1.68462594-1.46369073-3.61780323-2.48551348-5.52336316-3.67303674-2.87214918-1.76747679-5.68906365-3.39686802-8.83738154-4.39107341-0.63518705-0.22093399-1.10467239-0.69042054-1.7674768-0.88373839L135.83134325 68.06361915000002c-5.49574702-15.96251978-19.8564905-26.42929376-35.95709462-27.64443314 48.49513025-31.53840386 122.34249679-70.42288238 193.70435106-71.61040563C360.24559328-32.295890790000044 369.6905445 70.49389913000005 514.51313084 84.85464382999999zM297.77635525 193.02971376999994l37.08938438 37.11700173-104.33633273 104.33633272-38.05597362-38.08358977-33.69251635-137.44889552L297.77635525 193.02971376999994z"  horiz-adv-x="1024" />

    
    <glyph glyph-name="draw-edit" unicode="&#59036;" d="M765.799 736.793l-14.39 14.412-391.199-391.199 130.195-130.194 362.404 362.401 7.794-7.207 30.582 30.588-122.987 123.018-2.4-1.819zM968.593 707.406l-130.201 130.2-43.793-43.217 130.194-130.193 43.8 43.21zM316.999 316.207l-43.799-173.406 173.993 43.212-130.194 130.193zM871.998 324v-239.999c0-32.989-27.012-59.999-59.999-59.999h-599.999c-32.989 0-60 27.011-60 59.999v599.999c0 32.988 27.012 60 60 60h360v120h-360c-99.612 0-180-80.388-180-180v-599.999c0-99.612 80.387-180.001 180-180.001h600c99.61 0 180 80.389 180 180.001v239.999h-120.002z"  horiz-adv-x="1024" />

    
    <glyph glyph-name="overlay_analysis" unicode="&#58997;" d="M127.74 743.372h407.826v125.137h-532.944v-532.962h125.119zM413.452 216.862c0 154.993 124.145 281.007 278.435 284.029v210.345h-531.983v-532.010h256.035c-1.632 12.318-2.487 24.877-2.487 37.637zM1006.655-14.416l-98.894 99.167c-1.68 1.648-3.568 2.954-5.319 4.358 24.439 37.494 38.72 82.186 38.72 130.363 0 132.274-107.2 239.492-239.492 239.492-132.259 0-239.526-107.217-239.526-239.492 0-132.318 107.266-239.484 239.526-239.484 48.124 0 92.886 14.316 130.438 38.755 1.407-1.82 2.644-3.639 4.293-5.286l98.925-99.169c9.852-9.886 22.759-14.796 35.666-14.796 12.873 0 25.78 4.91 35.631 14.761 19.668 19.701 19.668 51.625 0.032 71.331zM701.668 55.573c-90.346 0-163.872 73.552-163.872 163.899 0 90.311 73.526 163.891 163.872 163.891 90.311 0 163.872-73.579 163.872-163.891 0-90.348-73.559-163.899-163.872-163.899zM765.484 319.374c-65.031-30.041-106.242-120.178-106.242-120.178l-25.402 44.334-52.313-28.572c22.204-7.195 53.943-30.079 80.883-60.112 19.038 31.474 77.717 95.856 106.258 101.565-11.103 22.913-4.769 41.497-3.185 62.963z"  horiz-adv-x="1024" />

    
    <glyph glyph-name="copy" unicode="&#58984;" d="M626.133 136.231c-96.258 0-192.518-0.002-288.777 0.001-41.537 0.001-73.878 32.318-73.885 73.985-0.028 191.364-0.027 382.727-0.001 574.092 0.005 41.871 32.397 74.106 74.307 74.106 192.189 0 384.377 0 576.565 0 42.164 0 74.374-32.192 74.384-74.523 0.035-141.257 0.013-282.513 0.013-423.77 0-49.942 0.037-99.886-0.013-149.827-0.037-36.669-24.994-66.626-61.022-73.203-4.019-0.734-8.197-0.823-12.302-0.826-96.423-0.044-192.848-0.035-289.27-0.035zM625.719 195.571c86.865 0 173.73-0.029 260.595 0.054 6.899 0.006 13.841 0.447 20.688 1.289 12.321 1.515 18.436 7.122 20.294 19.297 1.262 8.263 1.826 16.714 1.83 25.081 0.1 170.764 0.087 341.526 0.032 512.29-0.002 6.905-0.435 13.828-1.041 20.71-1.305 14.817-6.789 20.95-21.344 23.367-6.143 1.021-12.457 1.42-18.692 1.423-174.72 0.074-349.439 0.079-524.159-0.017-6.882-0.004-13.829-0.719-20.629-1.826-11.102-1.808-16.734-7.232-18.354-18.331-1.303-8.929-1.988-18.029-1.995-27.053-0.112-169.775-0.094-339.549-0.042-509.324 0.002-6.907 0.396-13.831 0.979-20.716 1.433-16.908 7.387-23.195 23.998-25.18 6.033-0.72 12.15-1.017 18.229-1.021 86.538-0.065 173.072-0.045 259.609-0.045zM396.383-93.222c-96.251 0-192.501-0.003-288.752 0.001-40.926 0.002-73.583 32.348-73.596 73.258-0.061 191.842-0.060 383.685-0.001 575.529 0.012 40.965 32.655 73.394 73.509 73.395 23.568 0.001 47.136 0.010 70.705-0.003 17.439-0.009 30.181-12.566 30.151-29.68-0.030-16.806-12.818-29.354-29.877-29.537-19.266-0.207-38.532-0.585-57.798-0.893-0.494-0.007-0.989-0.034-1.481-0.080-16.478-1.533-23.163-8.162-24.772-25.095-0.669-7.040-1.015-14.14-1.018-21.212-0.054-169.758-0.069-339.515 0.035-509.273 0.005-8.694 0.667-17.453 1.863-26.065 1.716-12.348 8.006-18.182 20.502-19.683 6.525-0.784 13.129-1.268 19.698-1.27 174.043-0.066 348.085-0.063 522.128-0.009 5.913 0.002 11.857 0.389 17.733 1.069 15.721 1.818 22.33 8.27 23.187 24.213 0.928 17.257 0.947 34.569 1.115 51.859 0.179 18.484 13.247 32.119 30.621 31.602 17.712-0.527 29.991-15.524 29.311-34.087-0.743-20.244-0.242-40.532-0.371-60.802-0.197-31.34-19.599-59.181-48.975-69.132-7.497-2.54-15.763-3.916-23.681-3.937-96.746-0.26-193.49-0.169-290.236-0.169zM589.177 463.003c-2.669 0-4.619 0-6.566 0-44.996 0-89.993-0.033-134.988 0.017-16.918 0.018-31.638 12.79-33.674 28.998-2.276 18.114 8.067 33.997 25.219 38.348 3.3 0.837 6.837 1.025 10.266 1.029 44.337 0.065 88.673 0.044 133.010 0.044 2.092 0 4.182 0 6.733 0 0 2.659 0 4.612 0 6.565 0 44.501-0.004 89.003 0.002 133.505 0.003 20.458 14.591 35.581 34.295 35.583 19.668 0.003 34.325-15.162 34.335-35.603 0.020-44.501 0.006-89.003 0.006-133.505 0-1.954 0-3.907 0-6.546 2.564 0 4.658 0 6.753 0 44.996-0.001 89.993 0.053 134.988-0.031 16.85-0.032 31.009-12.321 33.421-28.627 2.529-17.11-7.343-33.261-23.589-38.118-3.568-1.067-7.435-1.583-11.166-1.591-44.667-0.106-89.332-0.068-133.999-0.068-1.937 0-3.876 0-6.407 0 0-2.397 0-4.317 0-6.238 0-44.831 0.089-89.662-0.051-134.494-0.046-14.692-6.772-25.849-20.265-31.786-13.162-5.792-25.892-3.914-36.886 5.632-7.732 6.714-11.438 15.521-11.438 25.82 0.002 44.996 0.001 89.99 0.001 134.987-0.001 1.794-0.001 3.588-0.001 6.079z"  horiz-adv-x="1024" />

    
    <glyph glyph-name="measure-length_bak" unicode="&#59233;" d="M2.62033294 198.67100615000004l0-277.44452494 1018.75817131 0L1021.37850311 198.67100615000004 2.62033294 198.67100615000004zM951.30424093-9.401326929999982L72.69343005-9.401326929999982 72.69343005 129.29881429l45.87089692 0 0-69.37219186 46.70802489 0 0 69.37219186 46.1887488 0 0-69.37219186 45.80220359 0 0 69.37219186 69.32678428 0 0-69.37219186 46.70802489 0 0 69.37219186 69.35123513 0 0-69.37219186 45.78008178 0 0 69.37219186 70.2523995 0 0-69.37219186 45.80453148 0 0 69.37219186 46.21087062 0 0-69.37219186 46.68473913 0 0 69.37219186 69.35007004 0 0-69.37219186 45.78124573 0 0 69.37219186 46.20970666 0 0-69.37219186 46.70802489 0 0 69.37219186 45.86973184 0L951.30074795-9.401326929999982zM188.04945579 337.71112107L396.30341803 337.71112107 396.30341803 407.12755655 188.04945579 407.12755655 188.04945579 499.6855205 2.93585693 383.98952107 188.04945579 245.15315826000005ZM581.41585294 337.71112107L835.94821632 337.71112107 835.94821632 245.15315826000005 997.9237797 383.98952107 835.94821632 499.6855205 835.94821632 407.12755655 581.41585294 407.12755655ZM437.85827328 735.87907243c12.92716829 18.42729757 43.27451875 36.95705315 74.14114418 36.95705315 31.25200782 0 62.30026354-22.07619869 74.14114417-36.95705315 11.75122944-15.0147493 0-18.72186482 0-36.98033892 0-15.81811257 0.81384221-42.50375509-9.80802104-55.57645994-5.85174699-7.82988402-17.73687125-11.82923776-27.2747759-18.38189l-24.969472-23.52341674c-28.69754425-20.36002702-42.20918898-34.86830819-49.14722247-50.41397533-6.86817621-15.52354645-35.52147797-70.18719915-37.08279694-110.90725433l111.19949141 0c0.2957312 19.27723349 17.44463303 58.16701611 20.61035065 67.43014742 4.99249721 14.43842275 13.53493049 17.44346795 28.81048121 28.2690833l28.83143794 28.26791936c34.21281053 35.74851584 70.02885461 55.04554098 70.02885461 134.83584626 0 50.97865899-3.39042759 77.3045339-37.08279694 110.90608924-33.46533262 33.35239566-88.35369415 36.96869603-148.25783865 36.96869604-45.57749362 0-84.01436672-10.01060921-115.33506788-28.2690833-49.53143979-28.63001486-66.84217913-88.24192227-70.00556885-156.57439915l111.19949141 0C437.85827328 681.63572963 425.0452059 717.4971824300001 437.85827328 735.87907243zM438.10626787 347.72056633c0-30.91203413 24.79133469-55.97115619 55.36223005-55.9711562 30.55343047 0 55.34127218 25.05912206 55.34127218 55.9711562 0 30.88991232-24.78784171 55.95019833-55.34127218 55.95019833C462.89760256 403.66960071 438.10626787 378.61047865 438.10626787 347.72056633z"  horiz-adv-x="1024" />

    
    <glyph glyph-name="draw-polygon" unicode="&#59279;" d="M512.211 836.842l504.658-349.451-151.398-449.294-544.063-109.642-313.857 509.013 504.659 399.372z"  horiz-adv-x="1024" />

    
    <glyph glyph-name="plot" unicode="&#59323;" d="M557.503357 247.730407c8.572236-15.353686 14.169721-31.588439 14.169721-48.761564 0-82.134649-106.536408-148.719136-237.950414-148.719136S155.26011 116.83419400000002 155.26011 198.968843c0 17.174148 5.591345 33.407877 14.163581 48.761564C88.836281 215.00712099999998 36.284391 165.69194900000002 36.284391 109.73756600000002c0-98.558713 100.313683-178.462554 297.438273-178.462554s356.926132 79.903841 356.926132 178.462554C690.648796 165.69194900000002 638.09793 215.00712099999998 557.503357 247.730407zM793.681404 698.724984C624.664989 885.736239 333.722664 823.58983 333.722664 823.58983l-59.487859 0 0-713.852264 118.975718 0L393.210523 407.175839c62.271252 45.073568 155.405419 74.342172 237.950414 59.487859C881.307114 405.647019 988.087069 585.638393 988.087069 585.638393S899.439076 581.711967 793.681404 698.724984zM631.160937 585.638393c-71.331605 29.588899-202.924689-34.413787-237.950414-59.487859L393.210523 704.614112c0 0 204.119911 51.635007 297.438273-59.487859 51.308573-61.093427 118.975718-59.487859 118.975718-59.487859S734.413556 532.9739400000001 631.160937 585.638393z"  horiz-adv-x="1024" />

    
    <glyph glyph-name="layer-compare-old" unicode="&#59495;" d="M790.065 353.311l-51.451-17.13-44.612 84.078-144.092-208.029-77.19 49.741-120.955-131.433h506.907zM415.673 333.232c33.631 0 60.893 27.263 60.893 60.893 0 33.663-27.263 60.893-60.893 60.893-33.647 0-60.91-27.23-60.91-60.893 0-33.63 27.262-60.893 60.91-60.893zM172.099 176.201v64.359h-64.971v435.156l27.873-27.275 16.592 16.956-26.098 25.538h624.318v-54.87h64.361v102.645l24.243-23.726 16.594 16.955-32.541 31.847-8.298-8.478-771.419 0.127v-579.237l-8.298-8.479 32.542-31.845 16.593 16.958-23.878 23.367h112.386zM107.129 690.937h2.896l-2.896-2.96v2.96zM185.596 632.123l-16.593-16.955 32.541-31.845 16.594 16.955zM134.981 69.321l-34 33.273 16.593 16.957 34-33.273-16.593-16.957zM889.024 698.625l33.998-33.275-16.596-16.957-33.998 33.275 16.596 16.957zM957.002 632.125l-16.594-16.956 23.878-23.369h-754.445v-562.514l-24.245 23.726-16.593-16.956 32.542-31.845 8.298 8.478h771.405v579.111l8.298 8.478-32.543 31.846zM916.885 77.050h-642.702v450.391h642.702v-450.391z"  horiz-adv-x="1024" />

    
    <glyph glyph-name="full-map" unicode="&#59405;" d="M511.999 831.696c-247.256 0-447.696-200.43-447.696-447.696 0-247.255 200.44-447.696 447.696-447.696 247.245 0 447.696 200.441 447.696 447.696 0 247.267-200.451 447.696-447.696 447.696zM700.111 23.531c0 0-17.861 11.559-10.506 59.904 0 0-49.389 15.763-90.377 48.344 0 0-30.474 44.141 1.053 78.819 0 0-19.978 50.462-114.551 67.269 0 0-59.904 6.3-79.882 5.248 0 0-35.722 39.693-40.99 82.375 0 0-33.625 33.219-89.324 48.993 0 0-76.711 26.259-28.367 128.207 0 0 58.85 107.195-5.258 114.55 0 0-31.537-17.861-43.086-17.861 0 0-16.645 4.661-13.666 11.559 0 0 38.893 104.046 128.217 71.465 0 0 37.829-16.818 44.14-46.238 0 0 20.768-18.915 88.676 27.322 0 0 72.101-7.356 20.617-44.14-51.496-36.786-63.055-43.077-2.097-60.957 0 0 74.614-23.109 57.808 65.162 0 0 63.055 58.851 225.941-143.981 0 0 22.794-7.547-124.013-17.86-119.809-8.41-37.829-129.261 18.925-155.54 0 0-17.871-34.679-78.828 0 0 0-31.529 23.119-25.217 53.593 0 0-45.437 37.829-93.133-1.054 0 0-47.696-91.421 72.111-55.689 0 0 17.872-139.766 199.682-36.786 0 0 17.871 23.089 166.047-37.848 0 0 13.646-63.036-37.84-139.757-0.001-0-62.002-95.625-146.079-105.098z"  horiz-adv-x="1024" />

    
    <glyph glyph-name="e" unicode="&#59030;" d="M850.2857140624999 862.6285715625L850.2857140624999 672 373.028571875 672 373.028571875 474.51428531249996 802.2857140625 474.51428531249996 802.2857140625 292.1142853125 373.028571875 292.1142853125 373.028571875 93.25714312499997 865.37142875 93.25714312499997 865.37142875-96 159.08571406249996-96 159.08571406249996 862.6285715625 850.2857140624999 862.6285715625Z"  horiz-adv-x="1024" />

    
    <glyph glyph-name="s" unicode="&#59046;" d="M422.047706 674.524771C400.909986 657.144867 390.341284 634.128584 390.341284 605.475229 390.341284 576.821875 403.258586 554.040452 429.093578 537.130275 454.92857 520.220099 514.583019 500.256996 608.058716 477.240367 701.53441 454.223738 774.106164 419.699313 825.776147 373.666055 877.44613 327.632797 903.280734 260.462827 903.280734 172.154128 903.280734 83.84543 870.165466 12.213116 803.933945-42.744954 737.702423-97.703025 650.569348-125.181651 542.53211-125.181651 386.582706-125.181651 246.136405-67.406082 121.188991 48.146789L252.242202 208.792661C358.400531 115.786691 456.572026 69.284404 546.759633 69.284404 587.156165 69.284404 618.862268 77.974227 641.878899 95.354128 664.89553 112.734034 676.40367 136.220033 676.40367 165.812844 676.40367 195.405655 664.190948 218.891659 639.765138 236.27156 615.339327 253.651465 566.95816 271.265966 494.620183 289.115596 380.006766 316.359769 296.161733 351.823632 243.082569 395.508257 190.003404 439.192879 163.46422 507.77201 163.46422 601.247706 163.46422 694.723403 197.049205 766.825434 264.220183 817.555963 331.391162 868.286492 415.236195 893.651376 515.757798 893.651376 581.519595 893.651376 647.280405 882.378094 713.042202 859.831193 778.803999 837.284291 836.109847 805.343326 884.961468 764.007339L773.636697 603.361468C688.146362 668.18381 599.838988 700.594495 508.711927 700.594495 472.073211 700.594495 443.185427 691.904674 422.047706 674.524771L422.047706 674.524771Z"  horiz-adv-x="1024" />

    
    <glyph glyph-name="t" unicode="&#59047;" d="M627.078095 697.051429 627.078095-128 398.872381-128 398.872381 697.051429 109.226667 697.051429 109.226667 894.537143 916.72381 894.537143 916.72381 697.051429 627.078095 697.051429Z"  horiz-adv-x="1024" />

    
    <glyph glyph-name="clear" unicode="&#58925;" d="M851.359 723.359c-187.343 187.477-491.375 187.477-678.717 0-187.477-187.343-187.477-491.375 0-678.717 187.477-187.477 491.375-187.477 678.851 0 187.343 187.343 187.343 491.375-0.134 678.717v0zM628.287 170.696l-116.287 116.287-116.287-116.287c-26.764-26.764-70.253-26.764-97.017 0s-26.764 70.253 0 97.017l116.287 116.287-116.287 116.287c-26.764 26.764-26.764 70.253 0 97.017s70.253 26.764 97.017 0l116.287-116.287 116.287 116.287c26.764 26.764 70.253 26.764 97.017 0s26.764-70.253 0-97.017l-116.287-116.287 116.287-116.287c26.764-26.764 26.764-70.253 0-97.017s-70.12-26.764-97.017 0v0zM628.287 170.696z"  horiz-adv-x="1024" />

    
    <glyph glyph-name="draw-old" unicode="&#59327;" d="M731.712 336.896c-2.112 0-3.904-0.064-5.248-0.128-0.128 0-0.256 0-0.32 0-0.64-0.192-1.472-0.384-2.176-0.576-5.824-1.664-14.72-4.16-25.152-4.16-16.32 0-31.168 6.208-42.752 17.984-1.6 1.664-3.008 3.456-4.224 5.504-21.888 37.44-11.584 64.704 0 77.44 4.352 5.888 13.76 16.256 33.152 30.144 0.704 0.512 1.408 0.96 2.176 1.408 7.232 4.224 22.016 12.864 13.44 44.8-13.952 26.752-78.336 132.032-228.352 132.032-12.032 0-24.576-0.704-37.184-2.048-61.76-6.592-108.608-31.168-139.2-72.96-41.92-57.344-44.864-136.128-34.624-186.24 0.32-1.664 0.512-3.328 0.576-5.056 0.32-16.896 20.416-75.008 65.536-132.544 35.456-45.248 94.016-99.648 171.648-102.080 0.832 0 1.6-0.064 2.368-0.192 14.144-1.664 28.288-2.56 41.984-2.56 113.728 0 206.080 60.16 229.952 149.696 3.008 12.096 5.056 28.352-1.92 37.248-6.080 7.808-20.544 12.224-39.68 12.224zM374.976 551.68c22.272 0 40.256-18.048 40.256-40.256s-18.048-40.256-40.256-40.256c-22.272 0-40.256 18.048-40.256 40.256s18.048 40.256 40.256 40.256zM332.736 355.2c-22.272 0-40.256 18.048-40.256 40.256s18.048 40.256 40.256 40.256c22.272 0 40.256-18.048 40.256-40.256s-18.048-40.256-40.256-40.256zM397.952 236.544c-22.272 0-40.256 18.048-40.256 40.256s18.048 40.256 40.256 40.256c22.272 0 40.256-18.048 40.256-40.256s-18.048-40.256-40.256-40.256zM495.808 511.424c-22.272 0-40.256 18.048-40.256 40.256s18.048 40.256 40.256 40.256c22.272 0 40.256-18.048 40.256-40.256s-18.048-40.256-40.256-40.256zM588.416 277.504c-27.392 0-49.6 22.208-49.6 49.6s22.208 49.6 49.6 49.6c27.392 0 49.6-22.208 49.6-49.6s-22.208-49.6-49.6-49.6zM512.384 896c-282.56 0-511.552-229.056-511.552-511.552s228.992-511.552 511.552-511.552c282.56 0 511.552 228.992 511.552 511.552s-228.992 511.552-511.552 511.552zM826.816 273.792c-0.064-0.128-0.064-0.256-0.128-0.384-14.272-53.888-49.088-102.336-98.048-136.448-51.264-35.712-115.392-54.592-185.344-54.592-15.488 0-31.424 0.96-47.296 2.816-42.24 1.536-83.392 14.912-122.368 39.744-32.32 20.608-62.528 48.704-89.792 83.392-48.064 61.312-75.2 128.576-77.184 162.816-12.544 64-7.296 156.672 44.608 227.648 18.944 25.92 42.88 47.104 71.040 62.912 30.72 17.216 66.624 28.096 106.88 32.384 14.528 1.536 29.056 2.368 43.072 2.368 76.032 0 142.656-22.464 198.080-66.688 47.808-38.144 72.448-81.344 80.832-98.176 0.704-1.472 1.344-3.008 1.792-4.544 6.4-21.76 7.168-41.856 2.304-59.584-5.696-20.8-19.2-38.144-39.040-50.112-12.672-9.152-18.048-15.104-19.584-16.896-0.768-1.6-1.472-2.624-2.368-3.52 0.128-1.536 0.64-4.672 3.072-9.6 0.448-0.128 0.896-0.128 1.472-0.128 2.816 0 6.72 1.088 10.176 2.048 4.544 1.28 9.28 2.624 14.784 2.624 0.256 0 0.576 0 0.96 0 1.6 0.064 3.968 0.128 6.976 0.128 37.312 0 66.112-11.584 83.2-33.472 16.64-21.312 20.672-49.856 11.904-84.864z"  horiz-adv-x="1024" />

    
    <glyph glyph-name="draw-polyline" unicode="&#58935;" d="M986.219 790.447l-69.172 69.172q-29.654 28.643-70.153 28.643t-70.153-28.643l-69.172-69.172q-25.702-25.702-28.643-61.743t17.799-64.715l-464.354-463.343q-18.779 13.847-41.51 17.293t-44.956-3.952-39.012-24.217l-69.172-69.172q-28.643-29.654-28.643-70.153t28.643-70.153l69.172-69.172q18.779-18.779 43.975-25.702t50.394 0 43.975 25.702l69.172 69.172q24.691 25.702 28.169 61.269t-16.314 64.209l465.334 465.334q14.828-9.895 31.108-13.847t33.101-2.466 32.594 8.41 28.643 19.759l69.172 69.172q28.643 28.643 28.643 69.172t-28.643 69.172zM177.075-49.298l-99.776 99.776 99.776 99.776 99.776-99.776zM846.925 620.518l-99.776 99.776 99.776 99.776 99.776-99.776z"  horiz-adv-x="1024" />

    
    <glyph glyph-name="clear-gotop" unicode="&#58886;" d="M921.09090869 629.45454521L921.09090869 711.27272695 184.72727305 711.27272695 184.72727305 629.45454521 102.90909131 629.45454521 102.90909131 793.09090869 1002.90909131 793.09090869 1002.90909131 629.45454521 921.09090869 629.45454521ZM512 56.72727305000001L512 629.45454521 593.81818174 629.45454521 593.81818174 56.72727305000001 839.27272695 302.18181826 921.09090869 302.18181826 593.81818174-25.090908689999992 512-25.090908689999992 184.72727305 302.18181826 266.54545479 302.18181826 512 56.72727305000001Z"  horiz-adv-x="1118" />

    
    <glyph glyph-name="overlay_analysis_4" unicode="&#58933;" d="M564.178 191.63c0 78.927 64.056 142.918 143.083 142.918 79.026 0 143.081-63.991 143.081-142.918 0-78.919-64.056-142.901-143.081-142.901-79.027-0.001-143.083 63.981-143.083 142.901M506.95 191.63c0-110.49 89.686-200.059 200.31-200.059 44.994 0 86.522 14.816 119.964 39.831l82.079-81.989c5.589-5.573 14.646-5.573 20.234 0l20.234 20.221c5.596 5.574 5.596 14.619 0 20.207l-82.091 81.982c25.055 33.397 39.893 74.873 39.893 119.808 0 110.505-89.685 200.078-200.315 200.078-110.622-0.001-200.308-89.573-200.308-200.078M735.455 411.748h81.275c19.846 0 35.939 16.109 35.939 35.977l-0 343.958c0 19.869-16.094 35.974-35.939 35.974h-711.878c-19.846 0-35.931-16.106-35.931-35.974v-712.679c0-19.858 16.085-35.969 35.931-35.969h379.533l-0 156.248c0 0-3.932 15.174-20.21 17.422-16.28 2.244-30.395-9.081-30.395-9.081-9.885-11.962-24.832-19.583-41.552-19.583-29.761 0-53.892 24.147-53.892 53.956 0 29.8 24.132 53.948 53.892 53.948 16.721 0 31.667-7.611 41.552-19.576 0 0 13.552-13.021 30.395-9.647 16.84 3.377 20.21 16.862 20.21 16.862v128.164h70.025M597.775 458.482l-113.392 0.476v70.133c13.543-6.748 28.799-10.557 44.955-10.557 55.808 0 101.050 45.297 101.050 101.175 0 55.869-45.242 101.165-101.050 101.165-16.156 0-31.418-3.814-44.955-10.55v70.127h321.12v-321.492l-114.453-0M116.078 458.958v321.492h321.119v-92.182h0.023v-22.4c-0.008-0.008 3.365-13.004 21.893-15.814 18.529-2.81 28.676 8.519 28.676 8.519 9.883 11.962 24.82 19.583 41.551 19.583 29.77 0 58.383-19.583 58.383-58.446 0-38.873-28.613-58.453-58.383-58.453-16.731 0-31.668 7.612-41.551 19.58 0 0-12.954 9.643-28.676 6.833-15.713-2.81-21.419-15.171-21.419-15.171l-0.116-28.109h-0.372v-85.43h-83.53c6.753 13.566 10.559 28.854 10.559 45.041 0 55.877-40.754 96.674-96.562 96.674-55.816 0-96.578-40.797-96.578-96.674 0-16.187 3.806-31.475 10.559-45.041l-65.576 0zM437.218 155.889v-65.648l-321.14 0v321.491l108.925 0.016c0 0 15.147 3.937 17.395 20.236 2.248 16.295-9.069 30.42-9.069 30.42-11.954 9.895-19.568 24.855-19.568 41.595 0 29.799 24.14 53.956 53.909 53.956 29.753 0 53.892-24.157 53.892-53.956 0-16.733-7.612-31.7-19.566-41.595 0 0-13.002-13.558-9.629-30.42 3.366-16.861 16.839-20.236 16.839-20.236l128.010-0.016v-83.638c-13.551 6.757-28.821 10.567-44.993 10.567-55.815 0-96.569-40.791-96.569-96.663 0-55.878 40.761-96.674 96.569-96.674 16.172 0 31.443 3.81 44.994 10.565z"  horiz-adv-x="1024" />

    
    <glyph glyph-name="excel" unicode="&#59163;" d="M700.864 451.201h-60.864v60.801h60.864v-60.801zM700.864 381.569h-60.864v-60.801h60.864v60.801zM700.864 256h-60.864v-60.801h60.864v60.801zM700.864 124.736h-60.864v-60.736h60.864v60.736zM831.68 381.569h-60.864v-60.801h60.864v60.801zM831.68 256h-60.864v-60.801h60.864v60.801zM831.68 124.736h-60.864v-60.736h60.864v60.736zM66.752 654.080v-544.768l442.944-44.159v635.712l-442.944-46.784zM410.497 232.065c-8.704-5.632-15.936-7.488-21.76-5.632-5.761 1.856-10.944 6.145-15.616 12.608l-84.8 117.952-84.607-118.464c-9.984-14.016-22.399-16.001-37.376-6.015-6.208 3.969-10.111 9.343-11.905 16.064-1.665 6.656 0.065 13.824 5.376 21.248l95.040 133.568-82.88 115.264c-3.455 5.312-4.288 11.456-2.368 18.496 1.792 6.976 5.568 12.544 11.2 16.576 8.065 5.568 14.977 8.127 20.736 7.68s11.328-4.288 16.64-11.456l70.4-99.201 66.368 93.12c5.888 8.384 12.223 13.76 19.136 16.128s14.335 1.024 22.399-3.969c8.065-4.991 12.608-10.688 13.504-17.025s-0.768-12.736-5.12-18.88l-83.073-116.224 99.392-140.032c3.136-4.352 4.096-9.408 3.072-15.168s-5.696-11.393-13.76-16.64zM774.4 829.952h-618.367c-15.424 0-28.031-12.608-28.031-28.033v-86.143l64 5.888v47.936h512v-193.6h192v-578.048h-704v43.52l-64 6.143v-83.583c0-15.489 12.608-28.031 28.031-28.031h776c15.36 0 27.968 12.544 27.968 28.031v675.967l-185.6 189.952zM766.4 637.952v123.648l129.6-123.648h-129.6z"  horiz-adv-x="1024" />

    
    <glyph glyph-name="import" unicode="&#58902;" d="M838.394-34.115h-746.705v722.692h139.737l104.791 91.721h-336.216v-908.298h930.092v325.348l-91.699-65.546zM1057.846 456.066c-24.020 53.122-55.284 99.711-93.884 139.742-38.567 40.025-87.359 69.128-146.268 87.359-58.976 18.174-129.925 27.314-212.92 27.314l0 185.519-371.186-325.327 371.201-325.309v185.589c49.511 0 92.062-1.464 127.747-4.364 35.684-2.938 76.397-10.207 122.25-21.855 45.83-11.65 88.76-30.237 128.808-55.674 40.063-25.499 76.090-57.843 108.095-97.153 4.365-5.822 9.824-8.022 16.388-6.509 6.526 1.426 9.828 5.773 9.828 13.091-15.991 78.576-36.011 144.424-60.061 197.578z"  horiz-adv-x="1118" />

    
    <glyph glyph-name="draw-remove" unicode="&#59058;" d="M842 744h-180v60c0 33-27 60-60 60h-180c-33 0-60-27-60-60v-60h-180c-33 0-60-27-60-60v-60c0-33 27-60 60-60h660c33 0 60 27 60 60v60c0 33-27 60-60 60zM602 744h-180v30c0 16.5 13.5 30 30 30h120c16.5 0 30-13.5 30-30v-30zM182 24c0-66 54-120 120-120h420c66 0 120 54 120 120v480h-660v-480zM632 414c0 16.5 13.5 30 30 30s30-13.5 30-30v-360c0-16.5-13.5-30-30-30s-30 13.5-30 30v360zM482 414c0 16.5 13.5 30 30 30s30-13.5 30-30v-360c0-16.5-13.5-30-30-30s-30 13.5-30 30v360zM332 414c0 16.5 13.5 30 30 30s30-13.5 30-30v-360c0-16.5-13.5-30-30-30s-30 13.5-30 30v360z"  horiz-adv-x="1024" />

    
    <glyph glyph-name="side-by-side" unicode="&#59264;" d="M810.666667 768L597.333333 768 597.333333 682.666667 810.666667 682.666667 810.666667 128 597.333333 384 597.333333 0 810.666667 0C857.6 0 896 38.39999999999998 896 85.33333300000004L896 682.666667C896 730.026667 857.6 768 810.666667 768M426.666667 128L213.333333 128 426.666667 384M426.666667 768L213.333333 768C165.973333 768 128 730.026667 128 682.666667L128 85.33333300000004C128 38.39999999999998 166.4 0 213.333333 0L426.666667 0 426.666667-85.33333300000004 512-85.33333300000004 512 853.333333 426.666667 853.333333 426.666667 768Z"  horiz-adv-x="1024" />

    
    <glyph glyph-name="sync-disabled" unicode="&#59261;" d="M401.533 698.831v110.467c-44.187-11.046-82.851-27.616-121.515-55.233l82.851-82.851c11.046 11.046 22.095 22.095 38.663 27.616zM9.374 748.542l132.561-132.561c-44.187-66.281-71.804-143.609-71.804-231.982 0-121.515 49.711-231.982 132.561-309.309l-132.561-132.561h331.402v331.402l-121.515-121.515c-60.756 55.233-99.42 138.084-99.42 231.982 0 55.233 11.046 104.944 38.663 154.654l447.392-447.392c-11.046-5.523-27.616-11.046-44.187-16.57v-115.99c44.187 11.046 82.851 27.616 121.515 55.233l132.561-132.561 71.804 71.804-872.69 867.169-66.281-71.804zM953.87 825.87h-331.402v-331.402l121.515 121.515c60.756-55.233 99.42-138.084 99.42-231.982 0-55.233-11.046-104.944-38.663-154.654l82.851-82.851c38.663 71.804 66.281 149.131 66.281 237.505 0 121.515-49.711 231.982-132.561 309.309l132.561 132.561z"  horiz-adv-x="1024" />

    
    <glyph glyph-name="search-lightxxx" unicode="&#58955;" d="M1312.49731531 449.64924937L1312.49731531 306.48237281C1312.49731531 306.48237281 1298.80881125 227.28486750000002 1254.7051475 172.45237594000002 1192.40993563 95.00003249999997 1074.77774281-22.36309874999995 710.26667375-95.60761875000003 665.31098187-104.63986406000004 572.16712156 53.81493843999999 555.14898219 370.45174406 543.37006719 589.55001938 637.26879406 860.87985844 710.26667375 863.92548469 783.26455437 866.97111187 1179.17734156 760.25833125 1272.95648563 574.54236656 1317.51605937 486.29393156 1312.49731531 449.64924937 1312.49731531 449.64924937ZM473.31317937-52.96137094000005L71.25308375-52.96137094000005C49.57494781-52.96137094000005 32-35.386423130000026 32-13.708287189999965L32-9.971322190000024C32 11.710550620000049 49.57494781 29.28549843999997 71.25308375 29.28549843999997L473.31317937 29.28549843999997C494.99131438 29.28549843999997 512.56626219 11.710550620000049 512.56626219-9.971322190000024L512.56626219-13.708287189999965C512.56626219-35.386423130000026 494.99131438-52.96137094000005 473.31317937-52.96137094000005ZM473.31317937 745.12735875L71.25308375 745.12735875C49.57494781 745.12735875 32 762.70230656 32 784.38044156L32 788.1174075C32 809.7955425 49.57494781 827.37049031 71.25308375 827.37049031L473.31317937 827.37049031C494.99131438 827.37049031 512.56626219 809.7955425 512.56626219 788.1174075L512.56626219 784.38044156C512.56626219 762.70230656 494.99131438 745.12735875 473.31317937 745.12735875ZM71.25308375 629.37112125L439.85612844 629.37112125C461.53426437 629.37112125 479.10921219 611.79991031 479.10921219 590.11803844L479.10921219 586.3810725000001C479.10921219 564.7029375 461.53426437 547.12798969 439.85612844 547.12798969L71.25308375 547.12798969C49.57494781 547.12798969 32 564.7029375 32 586.3810725000001L32 590.11803844C32 611.79991031 49.57494781 629.37112125 71.25308375 629.37112125ZM71.25308375 425.28049875L394.23151906 425.28049875C415.909655 425.28049875 433.48460281 407.70555187 433.48460281 386.02741594L433.48460281 382.29045094C433.48460281 360.61231499999997 415.909655 343.03736719000005 394.23151906 343.03736719000005L71.25308375 343.03736719000005C49.57494781 343.03736719000005 32 360.61231499999997 32 382.29045094L32 386.02741594C32 407.70555187 49.57494781 425.28049875 71.25308375 425.28049875ZM71.25308375 227.28486750000002L439.85612844 227.28486750000002C461.53426437 227.28486750000002 479.10921219 209.70991969 479.10921219 188.02804688000003L479.10921219 184.29108187999998C479.10921219 162.61294594000003 461.53426437 145.03799813 439.85612844 145.03799813L71.25308375 145.03799813C49.57494781 145.03799813 32 162.61294594000003 32 184.29108187999998L32 188.02804688000003C32 209.70991969 49.57494781 227.28486750000002 71.25308375 227.28486750000002Z"  horiz-adv-x="1367" />

    
    <glyph glyph-name="region" unicode="&#58995;" d="M120.32 503.03999999999996L58.879999999999995 503.03999999999996l0-119.03999999999999 61.44 0L120.32 503.03999999999996zM120.32 322.56000000000006L58.879999999999995 322.56000000000006l0-119.03999999999999 61.44 0L120.32 322.56000000000006zM120.32 683.52L58.879999999999995 683.52l0-119.03999999999999 61.44 0L120.32 683.52zM842.24 744.96l61.44 0L903.6800000000001 864l-119.03999999999999 0 0-61.44 61.44 0L846.0799999999999 744.96zM723.2 864l-119.03999999999999 0 0-61.44L723.2 802.56 723.2 864zM842.24 560.64l61.44 0L903.6800000000001 683.52l-61.44 0L842.24 560.64zM239.35999999999996 802.56l119.03999999999999 0L358.40000000000003 864 239.35999999999996 864 239.35999999999996 802.56zM542.72 864l-119.03999999999999 0 0-61.44 119.03999999999999 0L542.72 864zM965.12 322.56000000000006L481.28000000000003 683.52 481.28000000000003 19.200000000000045l168.95999999999998 203.51999999999998 188.16-314.88 103.67999999999999 61.44-188.16 314.88L965.12 322.56000000000006zM239.35999999999996 19.200000000000045l119.03999999999999 0 0 61.44L239.35999999999996 80.6400000000001 239.35999999999996 19.200000000000045zM58.879999999999995 744.96l61.44 0L120.32 802.56l61.44 0L181.76000000000005 864 58.879999999999995 864 58.879999999999995 744.96zM120.32 138.24L58.879999999999995 138.24 58.879999999999995 19.200000000000045l119.03999999999999 0 0 61.44L120.32 80.6400000000001 120.32 138.24z"  horiz-adv-x="1024" />

    
    <glyph glyph-name="set-location" unicode="&#58890;" d="M919.813 341.812h-44.81c-19.35-168.159-152.698-301.395-320.815-320.758v-44.867c0-23.302-18.886-42.188-42.188-42.188s-42.188 18.886-42.188 42.188v44.867c-168.131 19.364-301.465 152.599-320.828 320.758h-44.797c-23.302 0-42.188 18.886-42.188 42.188 0 23.295 18.886 42.188 42.188 42.188h44.881c19.364 168.125 152.586 301.465 320.744 320.801v44.825c0 23.295 18.886 42.188 42.188 42.188s42.188-18.892 42.188-42.188v-44.881c168.117-19.364 301.465-152.592 320.815-320.744h44.81c23.302 0 42.188-18.9 42.188-42.188 0-23.302-18.886-42.188-42.188-42.188M708.875 426.188h80.873c-18.323 121.465-114.145 217.301-235.561 235.645v-80.958c0-23.302-18.886-42.188-42.188-42.188s-42.188 18.886-42.188 42.188v80.873c-121.465-18.323-217.308-114.145-235.645-235.561h80.958c23.302 0 42.188-18.9 42.188-42.188 0-23.302-18.886-42.188-42.188-42.188h-80.873c18.323-121.479 114.145-217.308 235.561-235.631v80.944c0 23.294 18.886 42.188 42.188 42.188s42.188-18.9 42.188-42.188v-80.944c121.416 18.317 217.238 114.145 235.561 235.631h-80.873c-23.302 0-42.188 18.886-42.188 42.188 0 23.288 18.886 42.188 42.188 42.188M512 341.812c-23.302 0-42.188 18.886-42.188 42.188 0 23.295 18.886 42.188 42.188 42.188s42.188-18.9 42.188-42.188c0-23.302-18.886-42.188-42.188-42.188z"  horiz-adv-x="1024" />

    
    <glyph glyph-name="export" unicode="&#58927;" d="M838.393-34.115h-746.705v722.691h139.737l104.791 91.721h-336.217v-908.298h930.091v325.348l-91.699-65.546zM347.651 309.731c54.548-20.578 109.598-31.415 165.199-32.427 55.573-1.031 110.653 12.891 165.199 41.655 54.553 28.851 111.185 72.557 169.871 131.243l131.182-131.182 32.427 492.509-492.507-32.451 131.231-131.231c-35.010-35.010-66.133-64.062-93.417-87.245-27.31-23.155-61.238-46.803-101.898-70.99-40.644-24.169-84.144-41.382-130.448-51.714-46.359-10.298-94.705-12.903-145.132-7.737-7.203 1.030-12.619-1.274-16.191-6.986-3.606-5.623-2.867-11.032 2.307-16.206 66.869-44.254 127.587-76.66 182.178-97.239z"  horiz-adv-x="1118" />

    
    <glyph glyph-name="my-path" unicode="&#58895;" d="M852.90524281 387.74061469C852.90524281 387.74061469 1063.94454594 539.57966531 1062.98494063 665.8046418700001 1062.09915125 775.27343719 968.86982656 864 852.90524281 864 736.86684313 864 649.61659625 775.05199031 642.75172906 665.8046418700001 634.85344062 539.57966531 852.90524281 387.74061469 852.90524281 387.74061469L852.90524281 387.74061469 852.90524281 387.74061469ZM849.43590125 760.95317719C900.22115469 760.95317719 941.33654188 720.94502625 941.33654188 671.6360878099999 941.33654188 622.32715031 900.22115469 582.3189993799999 849.43590125 582.3189993799999 798.65064781 582.3189993799999 757.46144469 622.32715031 757.46144469 671.6360878099999 757.46144469 720.94502625 798.65064781 760.95317719 849.43590125 760.95317719L849.43590125 760.95317719 849.43590125 760.95317719ZM585.54450312 217.96432969C592.852265 228.51998625 599.2742375 239.59235249999995 604.88423656 251.0337975 622.74765406 285.28431750000004 633.67238844 319.97773219 633.37712562 353.34246281000003 632.1222575 503.85282937 499.03241375 625.87030688 333.24218094 625.87030688 332.87310219 625.87030688 332.50402344 625.87030688 332.13494469 625.87030688 331.69205 625.87030688 331.32297125 625.87030688 330.9538925 625.87030688 165.82800125 625.87030688 32 506.06730281 32 358.21430438000004 32 350.38983188 32.36907875 342.71299124999996 33.10723625 335.03615062999995 33.99302563 320.71588969000004 36.79802562 306.24799781 41.3007875 291.70628999999997 49.71578656 262.25379563 63.59315187 234.79432686999996 81.89946406 210.21367406000002 167.00905438 82.51238156 333.24218094-29.02325625000003 333.24218094-29.02325625000003 333.24218094-29.02325625000003 500.8039925 87.01514343999997 585.54450312 217.96432969L585.54450312 217.96432969 585.54450312 217.96432969ZM328.29652437 268.67576813000005C260.60745781 268.67576813000005 205.68852031 321.97075781 205.68852031 387.74061469 205.68852031 453.51047062 260.60745781 506.80546125 328.29652437 506.80546125 396.05940594 506.80546125 450.9045275 453.51047062 450.9045275 387.74061469 450.9045275 321.97075781 396.05940594 268.67576813000005 328.29652437 268.67576813000005L328.29652437 268.67576813000005 328.29652437 268.67576813000005ZM1124.76874531 199.95328030999997C821.09064312 255.83182311999997 880.06944875 328.24509938000006 880.06944875 328.24509938000006L818.72853875 328.24509938000006C785.88051875 138.90763405999996 1309.45581594 208.22064750000004 1105.87190656 47.89278280999997 925.68759781-94.05495469000005 497.9989925 30.546074999999973 497.9989925 30.546074999999973L436.73189844-29.02325625000003C1120.56124625-253.12795125000002 1360.83159594 156.47578875 1124.76874531 199.95328030999997L1124.76874531 199.95328030999997 1124.76874531 199.95328030999997Z"  horiz-adv-x="1260" />

    
    <glyph glyph-name="draw-rectangle" unicode="&#58934;" d="M118.25 777.75h787.5v-787.5h-787.5v787.5z"  horiz-adv-x="1024" />

    
    <glyph glyph-name="zoom-in" unicode="&#59055;" d="M964.82 58.5l-158.88 158.82c41.88 65.34 66.84 142.5 66.84 225.84 0 231.96-188.040 420-420 420-231.96 0-420-188.040-420-420 0-231.96 188.040-420 420-420 83.34 0 160.56 25.020 225.84 66.84l158.82-158.88c35.16-35.16 92.16-35.16 127.26 0s35.28 92.22 0.12 127.38v0zM452.84 143.16c-165.66 0-300 134.28-300 300 0 165.66 134.34 300 300 300 165.66 0 300-134.34 300-300 0-165.66-134.34-300-300-300v0zM572.84 503.16h-60v60c0 33.12-26.88 60-60 60s-60-26.88-60-60v-60h-60c-33.12 0-60-26.88-60-60s26.88-60 60-60h60v-60c0-33.12 26.88-60 60-60s60 26.88 60 60v60h60c33.12 0 60 26.88 60 60 0 33.18-26.88 60-60 60v0z"  horiz-adv-x="1024" />

    
    <glyph glyph-name="clearall" unicode="&#58903;" d="M514.076 66.303c21.116 0 38.296 17.179 38.296 38.295v343.309c0 21.116-17.179 38.296-38.296 38.296s-38.296-17.18-38.296-38.296v-343.309c-0.001-21.115 17.179-38.295 38.296-38.295zM653.331 66.303c21.12 0 38.303 17.179 38.303 38.295v343.309c0 21.116-17.183 38.296-38.303 38.296-21.113 0-38.289-17.18-38.289-38.296v-343.309c0-21.115 17.177-38.295 38.289-38.295zM374.818 66.303c21.116 0 38.296 17.179 38.296 38.295v343.309c0 21.116-17.18 38.296-38.296 38.296-21.119 0-38.302-17.18-38.302-38.296v-343.309c0-21.115 17.182-38.295 38.302-38.295zM856.882 725.644h-156.67v39.356c0 36.473-29.674 66.147-66.148 66.147h-239.978c-36.473 0-66.147-29.674-66.147-66.147v-39.356h-156.668c-36.473 0-66.147-24.221-66.147-60.695v-49.347c0-32.92 24.173-60.302 55.702-65.324v-489.89c0-67.189 54.665-121.852 121.856-121.852h462.795c67.189 0 121.852 54.664 121.852 121.852v489.89c31.529 5.022 55.702 32.404 55.702 65.324v43.888c0 36.476-29.674 66.153-66.146 66.153zM790.734 60.389c0-24.959-20.303-45.263-45.259-45.263h-462.795c-24.958 0-45.263 20.304-45.263 45.263v489.066h553.316v-489.066zM404.53 725.644v30.129c0 9.598 7.808 17.406 17.407 17.406h184.276c9.601 0 17.411-7.808 17.411-17.406v-30.13h-219.095zM846.437 637.092c0-9.598-7.808-17.407-17.407-17.407h-629.908c-9.598 0-17.407 7.808-17.407 17.407 0 9.601 7.808 17.411 17.407 17.411h629.908c9.599 0 17.407-7.81 17.407-17.411z"  horiz-adv-x="1024" />

    
    <glyph glyph-name="advanced_search" unicode="&#59120;" d="M639.628 3.068h-412.878c-54.57 0-98.806 44.238-98.806 98.806v567.984c0 54.57 44.238 98.806 98.806 98.806h569.914c54.57 0 98.806-44.238 98.806-98.806v-413.525h63.961l0 430.219c0 80.317-65.11 145.426-145.426 145.426l-604.596-0c-80.316 0-145.426-65.11-145.426-145.426l0-604.596c0-80.317 65.11-145.426 145.426-145.426h430.219v66.537zM959.43-25.185l-248.696 248.696c35.524 43.931 56.814 99.846 56.814 160.743 0 141.298-114.545 255.843-255.843 255.843s-255.842-114.544-255.842-255.842 114.545-255.843 255.843-255.843c60.897 0 116.813 21.29 160.744 56.814l248.696-248.696 38.284 38.285zM511.706 192.373c-105.974 0-191.882 85.909-191.882 191.882s85.909 191.882 191.882 191.882 191.882-85.909 191.882-191.882-85.909-191.882-191.882-191.882z"  horiz-adv-x="1024" />

    
    <glyph glyph-name="measure-area_bak" unicode="&#58978;" d="M621.15091456 565.92110137c-7.0335067-9.59844807-16.44101063-21.50336512-36.37607083-36.38771371l0 0c-10.75110002-7.99637845-32.88202126-25.72626375-36.37607082-36.38771371-2.21798173-6.85420544 0.20142307-22.16352085 0-36.37607082l-72.79638414 0c1.07464477 30.07141205-4.83881074 61.28499826 0 72.7637834 4.88188928 11.47878514 24.72729827 20.03635314 44.8870673 35.06507434 0 0 95.44425131 26.65653475 35.39107726 99.66598486-8.82535651 10.59508451-21.95161885 10.80698653-43.87995192 10.80698652-21.63725881 0-38.30181433-0.9954725-47.3740015-14.60375324-8.98137202-13.57335211-25.40026083-43.59935659-25.40026084-58.17050909l-72.77426232 0c2.21681778 50.45356203 29.97011911 101.41242709 64.666112 122.51178211 21.97374066 13.50815175 48.92018574 20.89909589 80.88357774 20.8990959 41.99845091 0 81.3772379-15.14282098 109.1514971-34.24890311 27.81966563-19.19573219 36.37607083-35.14424661 36.37607083-72.77426233C657.52698539 615.65862229 633.15596061 581.69031453 621.15091456 565.92110137zM511.99941746 421.08745501c19.86753081 0 35.99534535-16.5865472 35.99534535-37.09211194 0-20.49624974-16.12781454-37.09327587-35.99534535-37.09327587-19.91293838 0-35.99534535 16.59819008-35.99534535 37.09327587C476.00407211 404.50090781 492.08647907 421.08745501 511.99941746 421.08745501zM766.70060317 856.98671502L220.92216206 856.98671502 2.62033294 420.39353458l0-109.16197604 0-72.77542627 72.75214052 0 873.25272519 0 72.75214052 0 0 72.77542627 0 109.16197604L766.70060317 856.98671502zM75.37247346 311.23155968000003L75.37247346 383.99534307 275.50198557 784.22293163l454.79926214 0 218.32511488-363.82939705 0-109.16197604L75.37247346 311.23155968000003zM2.62033294 202.08006258l0-291.06561252 1018.75817131 0L1021.37850311 202.08006258 2.62033294 202.08006258zM948.62636259-16.23341056000004L75.37247346-16.23341056000004 75.37247346 129.30580024999995l36.06287473 0 0-72.37141618 36.73467336-0.39236722L148.17002155 129.30580024999995l72.44010951 0 0-72.37141618 36.68926577-0.39236722L257.29939683 129.30580024999995l72.46106738 0 0-72.37141618 36.69042973-0.39236722L366.4508928 129.30580024999995l72.46106738 0 0-72.37141618 36.69042972-0.39236722L475.6023899 129.30580024999995l72.45990229 0 0-72.37141618 36.71255154-0.39236722L584.77484487 129.30580024999995l72.43894556 0 0-72.37141618 36.7113876-0.39236722L693.92517689 129.30580024999995l72.46106738 0 0-72.37141618 36.69042972-0.39236722L803.07667399 129.30580024999995l72.43894556 0 0-72.37141618 36.71255154-0.39236722L912.22817109 129.30580024999995l36.3981915 0L948.62636259-16.23341056000004z"  horiz-adv-x="1024" />

    
    <glyph glyph-name="draw-marker" unicode="&#59060;" d="M512.434 829.138c-0.054 0-0.109 0-0.164 0h-0.541c-0.056 0-0.109 0-0.164 0-191.363-0.435-346.93-156.111-346.93-347.638 0-188.81 119.554-338.511 326.018-532.536 0.325-0.435 0.435-0.977 0.815-1.303 3.042-3.26 6.735-5.433 10.646-6.844 0.923-0.325 1.955-0.325 2.934-0.543 2.227-0.542 4.399-1.412 6.681-1.412 0.107 0 0.162 0.108 0.27 0.108 0.109 0 0.164-0.108 0.272-0.108 2.282 0 4.455 0.87 6.681 1.412 0.977 0.218 2.011 0.218 2.934 0.543 3.909 1.412 7.605 3.585 10.646 6.844 0.38 0.325 0.488 0.869 0.814 1.303 206.464 194.025 326.019 343.725 326.019 532.536-0.001 191.526-155.569 347.203-346.932 347.638zM511.998 299.752c-101.194 0-183.541 82.347-183.541 183.596 0 101.248 82.347 183.487 183.541 183.487 101.196 0 183.541-82.238 183.541-183.487-0-101.25-82.345-183.596-183.541-183.596z"  horiz-adv-x="1024" />

    
    <glyph glyph-name="screen-shot-old" unicode="&#58939;" d="M193.24628651 431.58241053l158.29522659 0c23.58163229 0 42.49444125-19.13053184 42.49444125-42.49444125 0-11.47296313-4.46157824-21.89107541-11.90026013-29.54631509l0.20840903-0.41681806-108.3621046-108.35162568c-74.78965703-74.80246386-74.78965703-195.70751943 0-270.48436963 74.58357703-74.5730981 195.6865627-74.5730981 270.47621973 0 74.581248 74.77685021 74.581248 195.68190464 0 270.48436963-21.67218859 21.45562965-47.16209949 36.97684707-74.14813013 46.10375566l28.46934244 28.46701455 363.75371776 0c86.6910811 0 157.22640384 73.72083427 159.35357041 165.72575744 0 1.49379072 0.20840903 2.75821454 0 4.25317035-2.12716658 23.79702613-22.30556445 42.49444125-46.74761045 42.49444124l-263.88747378 0 190.59160747 190.5787995c17.41785429 17.43066112 18.48667705 44.84165973 3.18434645 63.10246286-1.05834382 1.28538169-2.12716658 2.13531762-3.18434645 3.19133241-66.29379641 63.30621497-168.49445091 65.65110557-229.68397824 4.46157824L410.82159559 537.8185125l-46.32147854 0c12.75019491 25.50038983 19.96998883 54.40285013 19.96998884 84.98655345 0 105.59224718-85.62225835 191.22614841-191.22381938 191.22614842S2.02130318 728.39614805 2.02130318 622.80506482C2.02130318 517.19418994 87.64356039 431.58241053 193.24628651 431.58241053zM278.23516786 622.80506482c0-46.95369045-38.03286187-84.98655346-84.98888135-84.98655346s-84.98888135 38.03286187-84.98888136 84.98655346c0 46.95834851 38.03286187 84.99121038 84.98888136 84.99121038S278.23516786 669.76341333 278.23516786 622.80506482zM469.25057821 175.55858546000002c33.13700181-33.16028757 33.13700181-86.92044686 0-120.05511965-33.14515171-33.34541085-86.90764003-33.34541085-120.26120079 0-33.14747961 33.13467278-33.14747961 86.89483321 0 120.05511965C382.34410325 208.89933824000002 436.10542649 208.89933824000002 469.25057821 175.55858546000002z"  horiz-adv-x="1024" />

    
    <glyph glyph-name="draw" unicode="&#59453;" d="M1026.467 313.461c0 0-71.050 16.259-262.723 176.363l-42.9 42.9-355.689-355.689 42.9-42.9 0.1 0.098 83.225-98.519c85.819-115.615 96.146-161.837 96.146-161.837l92.647 61.861-53.277 109.453 84.787-69.977 53.957 48.46-42.331 72.619 66.251-46.012 54.497 49.492-28.841 58.759 59.052-28.674 66.106 73.573-48.002 59.962 75.186-39.312 58.907 89.38zM633.234 607.465l-0.002-0.002-3.147 3.15c-17.379 15.724-60.395 32.153-105.211-12.622l-38.506-38.526c-27.678-6.454-61.057 38.691-61.057 38.691l0.002-0.042-156.973 250.114c-61.017 61.055-159.086 61.055-219.339 0.827-60.273-60.291-60.272-158.374-0.022-218.623l252.133-158.445c6.743-5.213 43.406-35.047 37.591-60.209l-35.813-35.794c-44.775-44.773-28.367-87.808-13.45-104.319l3.993-3.999-0.015-0.015 40.25-40.25 339.814 339.814-40.249 40.25z"  horiz-adv-x="1024" />

    
    <glyph glyph-name="filter" unicode="&#59057;" d="M949.8454528 107.05811200000005L789.9243392 266.97922559999995c-16.04669227 15.93753067-37.22395947 24.77958507-59.82032213 24.77958613-20.194816 0-39.29802133-7.09547627-54.58058454-19.97649493l-52.0698784 52.0698784c45.4110464 56.8729696 70.19063253 126.84528 70.19063254 200.6382304 0 86.0190016-33.51247893 166.90742933-94.3152512 227.71020053-60.8027712 60.8027712-141.69119893 94.3152512-227.71020054 94.3152512-86.0190016 0-166.90742933-33.51247893-227.71020053-94.3152512-60.8027712-60.8027712-94.3152512-141.69119893-94.31525013-227.71020053 0-86.0190016 33.51247893-166.90742933 94.31525013-227.71020053 60.8027712-60.8027712 141.69119893-94.3152512 227.71020053-94.3152512 73.7929504 0 143.8744224 24.67042453 200.6382304 70.19063253l52.0698784-52.06987733c-12.8810176-15.28256427-19.97649387-34.38576853-19.97649386-54.5805856 0-22.59636267 8.8420544-43.8827904 24.77958506-59.82032107L788.941888-53.73629119999998c16.04669227-15.93753067 37.22395947-24.77958507 59.82032107-24.77958613 22.59636267 0 43.8827904 8.8420544 59.82032106 24.77958613l41.15376107 41.15376107C965.78298347 3.355000529999984 974.51587733 24.641428270000006 974.51587733 47.23779092999996c0.1091616 22.59636267-8.73289387 43.8827904-24.67042453 59.82032107zM194.99596267 347.97681387c-47.1576256 47.1576256-73.137984 109.81613653-73.137984 176.51361173s25.9803584 129.35598613 73.137984 176.51361173c47.1576256 47.1576256 109.81613653 73.137984 176.51361173 73.137984 66.6974752 0 129.35598613-25.9803584 176.51361173-73.137984 47.1576256-47.1576256 73.137984-109.81613653 73.137984-176.51361173 0-66.6974752-25.9803584-129.35598613-73.137984-176.51361173-47.1576256-47.1576256-109.81613653-73.137984-176.51361173-73.137984-66.6974752 0.1091616-129.35598613 25.9803584-176.51361173 73.137984z m703.54373973-309.3627552l-41.15376107-41.15376107c-3.1656736-3.1656736-6.76799253-3.60231893-8.62373226-3.60231893-1.85573973 0-5.5672192 0.43664427-8.62373227 3.60231893L680.32652373 157.2722496c-3.1656736 3.1656736-3.60231893 6.76799253-3.60231786 8.62373333s0.43664427 5.5672192 3.60231786 8.62373227l41.15376107 41.15376107c3.1656736 3.1656736 6.76799253 3.60231893 8.62373227 3.60231786 1.85573973 0 5.5672192-0.43664427 8.62373333-3.60231786l159.811952-159.81195307c3.1656736-3.1656736 3.60231893-6.76799253 3.60231893-8.62373227 0-1.96490133-0.43664427-5.5672192-3.60231893-8.62373226z"  horiz-adv-x="1024" />

    
    <glyph glyph-name="plot-line" unicode="&#58909;" d="M900.93056 595.7017599999999c-41.06752 0-74.4704-33.42848-74.4704-74.49088 0-9.99936 1.99168-19.5328 5.5808-28.25728l-220.2624-205.17888a73.98912 73.98912 0 0 1-41.23136 12.50304c-7.74144 0-15.27296-1.1776-22.4512-3.45088L477.98272 436.46464a74.1376 74.1376 0 0 1 8.14592 33.92c0 41.0624-33.3824 74.49088-74.4448 74.49088s-74.4448-33.42848-74.4448-74.49088c0-3.82464 0.29184-7.6032 0.85504-11.3152l-177.23392-190.28992a73.88672 73.88672 0 0 1-39.79776 11.5968c-41.0624 0-74.4704-33.42336-74.4704-74.49088 0-41.08288 33.408-74.51648 74.4704-74.51648 41.04192 0 74.4192 33.42848 74.4192 74.51648 0 7.61344-1.15712 14.976-3.29216 21.89824L363.6224 413.49632a74.45504 74.45504 0 0 1 76.33408-12.07808l67.38944-136.192a74.16832 74.16832 0 0 1-11.2384-39.4496c0-41.08288 33.3824-74.51648 74.4448-74.51648 41.06752 0 74.4448 33.42848 74.4448 74.51648a74.3424 74.3424 0 0 1-2.72384 19.9168l224.67072 209.26464a73.96352 73.96352 0 0 1 33.99168-8.24832c41.04192 0 74.4192 33.42848 74.4192 74.49088-0.01024 41.06752-33.38752 74.50112-74.42432 74.50112zM121.06752 182.95808a22.91712 22.91712 0 0 0 0 45.82912 22.93248 22.93248 0 0 0 22.87616-22.90176c-0.00512-12.6464-10.28608-22.92736-22.87616-22.92736z m276.31104 269.53728a22.8608 22.8608 0 0 0-8.59136 17.88928 22.9376 22.9376 0 0 0 22.90176 22.90176 22.912 22.912 0 0 0 22.87616-22.90176c0-6.04672-2.31936-11.7248-6.50752-16.01024l-0.19968-0.18432c-9.06752-9.05216-25.04192-6.07744-30.47936-1.69472z m173.17376-249.63584a22.92224 22.92224 0 0 0-22.87616 22.92736 22.7328 22.7328 0 0 0 8.27904 17.62304c0.33792 0.24064 0.68608 0.48128 1.01376 0.7424 0.19968 0.15872 0.38912 0.32256 0.58368 0.49152a22.64064 22.64064 0 0 0 12.99456 4.0448 22.92736 22.92736 0 0 0 22.88128-22.90176 22.9376 22.9376 0 0 0-22.87616-22.92736z m330.37824 295.4496c-12.65152 0-22.90176 10.28096-22.90176 22.90176s10.25024 22.90176 22.90176 22.90176a22.92736 22.92736 0 0 0 22.87104-22.90176 22.92736 22.92736 0 0 0-22.87104-22.90176z"  horiz-adv-x="1024" />

    
    <glyph glyph-name="hand-old" unicode="&#58954;" d="M870.4 691.2c-18.637 0-36.147-5.018-51.2-13.773v64.973c-0.129 56.513-45.971 102.275-102.502 102.275-21.202 0-40.9-6.437-57.248-17.464-13.665 40.116-51.655 68.788-96.25 68.788s-82.637-28.672-96.614-68.557c-15.983 10.795-35.681 17.232-56.883 17.232-56.531 0-102.373-45.763-102.502-102.263l-0-377.51-68.915 119.45c-14.316 26.144-39.305 44.921-68.949 50.57-0.059 0.41-8.811 1.667-17.857 1.667-18.269 0-35.341-5.128-49.854-14.023-46.021-27.615-63.737-90.591-39.007-140.153 1.536-3.123 34.202-70.042 136.192-273.92 48.026-96 100.71-164.659 156.621-203.981 43.878-30.874 74.189-32.461 79.821-32.461h256c43.571 0 84.070 14.182 120.422 42.086 34.15 26.266 63.795 64.256 88.064 112.845 47.821 95.642 73.114 227.942 73.114 382.669v179.2c0 56.474-45.926 102.4-102.4 102.4zM921.6 409.6c0-146.79-23.398-271.155-67.686-359.731-28.877-57.754-80.589-126.669-162.714-126.669h-255.488c-1.997 0.154-23.552 2.56-56.064 26.88-32.41 24.269-82.176 75.366-135.066 181.248-103.782 207.565-135.68 272.947-135.987 273.562l-0.102 0.205c-12.851 25.754-3.738 59.494 19.917 73.677 6.615 4.060 14.625 6.465 23.197 6.465 4.226 0 8.315-0.584 12.191-1.677 14.126-4.048 25.619-14.251 31.405-27.514l-1.359 2.912 79.923-138.496c16.333-29.85 34.714-42.394 54.63-37.325 19.968 5.069 30.054 25.037 30.054 59.238v400.026c0 28.211 22.989 51.2 51.2 51.2s51.2-22.989 51.2-51.2v-332.8c0-14.138 11.462-25.6 25.6-25.6 14.138 0 25.6 11.462 25.6 25.6v384c0 28.211 22.989 51.2 51.2 51.2s51.2-22.989 51.2-51.2v-384c0-14.138 11.462-25.6 25.6-25.6 14.138 0 25.6 11.462 25.6 25.6v332.8c0 28.211 22.989 51.2 51.2 51.2s51.2-22.989 51.2-51.2v-384c0-14.138 11.462-25.6 25.6-25.6 14.138 0 25.6 11.462 25.6 25.6v230.4c0 28.211 22.989 51.2 51.2 51.2s51.2-22.989 51.2-51.2v-179.2z"  horiz-adv-x="1024" />

    
    <glyph glyph-name="zoom-out" unicode="&#58887;" d="M964.82 58.441l-158.82 158.88c41.82 65.28 66.841 142.5 66.841 225.84 0 231.961-188.039 420-420 420s-420-188.039-420-420c0-231.9 188.039-420 420-420 83.34 0 160.56 25.020 225.84 66.9l158.82-158.88c35.159-35.159 92.16-35.159 127.321 0s35.161 92.16 0 127.26zM452.841 143.161c-165.719 0-300 134.279-300 300s134.281 300 300 300c165.66 0 300-134.341 300-300s-134.4-300-300-300zM572.841 503.159h-240.001c-33.18 0-60-26.819-60-60 0-33.12 26.821-60 60-60h240.001c33.12 0 60 26.88 60 60 0 33.18-26.939 60-60 60z"  horiz-adv-x="1024" />

    
    <glyph glyph-name="globe" unicode="&#58884;" d="M504.1663189 451.17839241c0.04403115 0.06566048 0.10428428 0.12823105 0.14522552 0.19311904-0.16299247 0.77865601-0.29431343 1.46306992-0.35533905 1.9474125 0.07415771-0.70758819 0.14754295-1.42290115 0.21011353-2.14130402v0zM656.06758308 285.31616592c0.00540733 0 0.00540733 0.00849724 0.00540733 0.01390458-0.01931191 0.00849724-0.08806228 0.00849724-0.1004219 0.02780914 0.01931191-0.01931191 0.07261277-0.01931191 0.09501457-0.04171372v0zM659.96009064 284.82950590999997c-0.94164848 0.15217781-3.05668831-0.12282371-3.89250756 0.48666001-0.51215171-1.77978516 0.26109696-2.44797707 3.89250756-0.48666v0zM511.99922752 779.5078125c-218.43618393 0-395.50240517-177.06699372-395.50240516-395.49699783 0-218.43154907 177.06622124-395.50240517 395.50240516-395.50240517 218.42614174 0 395.49545288 177.06931114 395.49545288 395.50240517 0.00077248 218.42923164-177.06931114 395.49699783-395.49545288 395.49699783v0zM764.61748314 625.00948333c-13.62416267-0.41018486-23.11248779-0.437994-34.06233788-7.99358367-4.40774918-3.0474186-7.40341187-7.0874691-13.00154686-8.65636826-5.02186775-1.41285896-10.43924332-0.17457962-15.42016983-1.86475754-17.96702385-6.0979271-15.12122154-44.58655357-38.79838943-38.77135276-11.12211228 2.7260685-18.96197319 15.87052345-24.55856323 24.45118904-4.93303298 7.55172729-13.91152382 13.80028725-7.8437233 23.24767113-2.76700973-0.70913315-5.71709633 0.10119438-8.44161988-0.4155922 3.79131318 8.32806587 16.5147686 7.59962082 18.62903595 11.85596467 5.26906013 10.6702137-14.51405525 11.78257942-20.11296272 13.26032638 6.75144196 7.19870567 10.17119407-2.41939544 16.83380127-0.78715325 6.40537262 1.57507897-3.38112832 10.01206399-7.21879005 10.95834732-1.37964248 0.34143448-23.93517494-6.23002053-10.8810997 5.45059204-16.11385346 10.27084351-32.22307205 20.54168701-48.33769798 30.82180023-2.71525383-11.43110275 21.44780159-17.9229927 29.33710098-21.95222854-1.22514725-4.71982957-8.56367111-11.59332276-14.1849804-9.57947731-5.29841423 1.90029144-3.1478405 10.66866875-11.14296913 9.78881836-5.70473671-13.2695961 12.06994058-9.39099311 13.72149468-17.52439499 1.87711716-9.26430702-6.72208786-5.33703803-10.02596856-5.1794529-0.78792573 0.04403115-6.94919586 6.42159462-7.2821331 1.59130097-0.40091514-5.73563576 9.82589722-3.4985447 10.54816247-9.29057122-11.91390038-0.48125267-17.99328803 3.81834983-27.69095421 10.26311876-11.32141114 7.51310348-17.12734222 6.83409691-30.99715233 6.8340969 4.1474247 1.70408249 9.86065865 2.96939849 13.40555191 5.70937157 1.93968772 1.50246621 9.5408535 8.88733864 10.04450798 10.53580284 2.1451664 7.11914063-0.11896133 6.57686233-6.92602158 11.24416351-6.05621338 4.14201736-13.39705467 11.57555581-20.73094368 13.03708076-26.58013344 5.30691147-8.19597244-23.99156571-28.36996078-28.03238868 0.34606934-0.01776695 0.71685791-0.03630638 1.01580619-0.03630639h-1.15485191c0.05175591 0.00386238 0.09192467 0.02703667 0.1398182 0.03630639-4.66730118 0.16530991-13.41482163 1.30316734-16.42207146-1.16334916-2.12430954-1.73498154-2.29966164-8.6973095-4.67579842-11.21326446-4.22003746-4.50662613-10.51571846-5.40347099-15.55535316-8.6517334-4.91681099-3.16946983-15.76005936-11.30518913-18.65066529-16.82607651-10.64703941-20.34007073 23.98770332-26.65429116 37.11825371-32.597723 5.93184471-2.68898964 23.26775551-6.36443137 26.49979592-10.85251808 4.32818413-6.02917671-3.73492241-11.68215752 5.30922889-15.91764451 2.88674355-1.35028838 8.84407998-1.6260624 11.3291359 1.17107392 4.04314041 4.55374717-1.63996697 5.58191299-2.60787964 10.84479331-1.88020706 10.13102531 1.21278762 6.10719681 6.30726814 9.86838342 10.38594246 7.6652813 8.04302216 8.13417434 4.3096447 20.35320282-1.73420906 5.6823349-8.27939988 21.55672073-2.5213623 25.75590133 7.50383377 5.47222138 23.51263046-2.96785355 29.2714405-3.67775917 6.69891357-0.81882477 10.49795151-10.09780883 14.15021897-13.89607429 2.42480278-2.52058983 6.75916672-7.86844253 10.99697112-7.28908539 6.72440529 0.91770173 3.90872956 6.79779052 7.81050683 9.5084095 10.45932771 7.25432395 13.21706772-2.60015488 17.38457679-12.45926857 3.92263413-9.25580978 7.63129234-12.69332886 14.61370468-18.63289833 3.24517251-2.76314736 17.45100975-12.62998582 16.1123085-18.71246338-0.91152191-4.09644127-17.14047432-10.31023979-21.48333549-11.68447494-15.86434365-5.02573013-45.62398911 8.22609902-48.8204956-16.93422318 6.15509033 2.29502678 23.66326332 16.59665108 28.91223907 9.81508255 2.39544868-3.0729103-1.89488411-7.55172729-0.88834762-10.60687065 2.99643517-9.16002274 10.06150246-5.96892356 17.4687767-4.48731423-0.50751686-0.31594277-1.02430343-0.59171677-1.57198906-0.83659172 10.12175559 5.19953728 9.06732559 4.11884308 13.71376992 12.55196572 1.51328087 2.7585125 3.77277375 9.42652703 5.90635299 11.4002037 7.35783577 6.76380158 8.48796844 2.10577012 13.04635048-3.11385155 1.19424819-1.37423515 12.46081353-17.59932518 8.44857216-16.78822517-13.10351372 2.62796402-25.68483353 2.27648736-36.55666352-4.88977432-6.26091957-4.13815498-12.18426704-9.71466065-19.66260911-12.46544839-1.79600716-0.65196991-15.06869317-1.91342354-13.49747656 0.3507042 2.29039192 3.30001831 10.17428398 5.48535347 13.28272819 9.04801369-8.6192894 3.55030059-15.81490517-4.28956032-22.58643151-8.87343407-7.18943596-3.40198517-8.86107444-9.74092483-14.98140334-15.29580116-2.67508507-2.4209404-7.72862435-2.83807754-10.3488636-6.02608681-2.54299164-3.09531212-2.86434173-7.95882225-5.27678489-10.89654923-1.68863296-2.05864907-6.02763176-0.81418991-7.79196741-3.91336441-2.30275154-4.0500927 2.10577012-7.81050682 1.13862992-10.72660445-1.76819801-5.30304909-11.85210228-9.80195046-15.72993279-13.61643791 0.52064895 0.4967022 1.03357315 1.00808144 1.54109001 1.53027534-3.8878727-4.07635688-8.80700112-7.07665444-11.83897017-11.79571152 1.39277458-6.65874482 5.78352928-22.54703522 4.56224441-26.20239258-4.04236793-12.02127457-11.8969059 6.54055596-15.07796287 11.33763314-10.93749046 16.48077965-32.80165672 5.45136452-47.73980142 4.08639908-19.09715652-1.74965858-37.8096199-26.54073715-26.02704047-46.66296959 5.65607071-9.64822769 15.16911506-13.3831501 26.08574866-11.14992142 9.71543313 1.9860363 12.63075828 15.57543755 21.77610398 15.82571983 16.8067646 0.44649124 0.37233352-16.47537232-1.08532906-22.68144607-1.34488105-5.7503128 2.0965004-6.28409385 8.0159855-7.71085739 4.37298774-1.04361533 10.56361198 1.87325478 14.3564701-0.6233883 2.38386155-1.57507897 2.27108002-10.20750046 5.55487633-7.48683929-6.46717072-5.35866738-4.95620727-18.06203843 1.67163849-22.65440941 7.35011101-5.09602547 16.00338936-0.37542343 23.69879723-2.33210564 14.52641487-3.71097565 7.59112358 1.10541343 20.34856795 8.80700112 8.60692978 5.18640517 10.0213337-0.98027229 15.90605737-1.00344658 4.00837898-0.01776695 6.54905319 5.75649262 13.24255942 4.07635688 5.45754433-1.37191773 7.61352539-5.5850029 14.13090706-6.55755042 2.67045022-0.39550781 5.43050767 1.00653648 7.97890663 0.72535515 12.05758095-1.33870125 21.28249168-9.04028892 30.780859-16.00570679 7.8275013-5.73254585 13.01081658-4.57074165 22.15770722-7.18402863 6.67651177-1.90647126 19.00600432-11.57323838 18.37566375-20.05734444-0.11509896-1.51791573-5.95501899-9.14998055-6.95305824-12.58981704 1.71257973-1.184206 13.59789848 1.47311211 17.07790375 1.72493934-1.1455822-1.33097648-9.24267769-7.02103615-9.24267769-4.0045166 0-1.54340744 5.73177338-4.72214699 7.123003-5.71246148 4.22467232 13.71145249 11.15919113 4.88900185 19.51043129 1.49165155 7.09751129-2.88906098 15.82958221-3.04819107 23.39907647-4.84960556 6.42854691-1.53104782 20.59498787-5.86772918 25.35807609-11.1182499 5.7310009-6.32349014 1.76974297-16.58892632-2.47346879-22.87919998-5.54637909-8.24154854-13.91229629-11.4133358-17.37067221-21.11022948-2.73688316-7.68613816-0.68518638-15.45029641-2.24713326-23.97534371-2.11117745-11.53229714-3.80444527-7.49147415-11.2348938-14.52718735-6.24624252-5.92875481-0.10428428-4.89904404-8.61079216-8.67568016-8.5513115-3.80135537-16.0767746-2.66581536-21.99548721-12.04753876 0.2371502 0.58785439 0.42949676 1.18188858 0.59635162 1.79677964-2.50050545-3.49081993-3.74728203-10.64858437-4.93071556-12.99691201-2.9856205-5.9936428-7.10214615-9.77336883-11.81888581-14.76433754-1.80913926-1.90878868-18.432827-24.62731362-19.3961048-22.80117989-1.23518944 2.37304688-14.34488296-2.37999917-14.96904373 1.00267411 0.52219391-2.84502983-0.12282371-1.89179421 3.12930106-3.52789879-3.01111221-18.66843223-10.90968132-21.45243645-29.24054145-21.64092064 1.57662392-8.97308349-6.64406777-7.18557358-10.46164514-12.00968742-2.23554611-2.81490325-3.29847336-10.73355674-4.84883308-14.38118935-0.96714021-2.29348183-8.12104225-11.47667886-8.12104225-13.29354286-0.00849724-1.6778183 2.4047184-4.13197517 4.66884613-6.48493767-12.92429924-2.55535125-26.10197067-4.33822632-39.48512077-5.42664528 2.50745773 3.15633774 3.1092167 5.93184471-4.87277984 6.311903 2.13744163 5.80129624 7.15467453 9.1090393 9.27666663 14.73343849 1.00885391 2.65191079 0.17612457 3.70016098 1.02662087 6.32349014 2.91918755 9.0735054 1.65387154 5.64757347 0.00849724 12.69796373-3.85620117 16.51167869 1.37114525 21.02834702 5.87236404 36.14416121 4.62095261 15.53449631 4.19222832 35.67835807 7.15235711 52.4101925 1.40436173 8.00748825 3.70325088 24.67288972 0.92388152 32.24624633-3.1347084 8.52041244-16.91800118 15.23400307-23.23067664 20.97118377-8.93986702 8.14189912-13.68905068 16.94194794-20.32693864 27.00654031-3.3718586 5.11610984-7.21029282 10.12793541-9.83902931 15.68667412-5.62130928 11.88763618 0.00463486 4.81098174 0.95169068 11.82429314 0.9053421 6.77693367-0.81110001 12.8377819 1.88097954 19.95228767 2.97712327 7.86458016 10.40834426 12.76825905 12.85091399 20.69540977 2.19614983 7.06274986 0.52451134 15.93850136-6.72904013 18.29069138-4.04159546 1.32016182-8.50419045-1.72184944-12.56200791-1.05365754-5.66379547 0.91770173-12.07457542 5.143919-16.5178585 8.52118493-6.20452881 4.73064423-8.52890969 12.40905762-15.13358117 16.89250945-5.53170204 3.73492241-9.46515083 1.49474144-15.38000107 3.2482624-6.17285728 1.81686401-9.98193741 9.42884445-14.95977401 11.81038858-7.46829987 3.57347488-11.67597771-1.55885696-19.56141473-0.51987648-6.70818328 0.87830543-16.93576813 8.3079815-23.19977761 11.11902237-12.7404499 5.70010185-20.49765587 11.99655533-25.58981895 24.92394447-4.36449051 11.09044075-10.72583198 16.25985146-18.21344374 25.49325943-7.58648873 9.36086655-9.96417046 17.33359337-21.66332246 19.82560157-1.36805534 0.30126572 2.86434173-9.82048988 3.30233574-10.63467979 4.17677879-7.73712158 10.45469285-14.80605125 15.50282479-22.01325417 7.43044853-10.61305046 4.26329613-12.60526657-3.29306603-2.34292029-8.64323616 11.74241066-18.66765976 23.41838837-26.16299629 35.85139274-2.83267021 4.69820022-2.28652954 7.73712158-6.96155549 12.19739914-4.51280594 4.31350708-10.42379379 6.41464234-14.97290611 10.51108361-16.35718345 14.71489907-19.33430672 34.35665131-17.46954918 55.32551765 0.60948372 6.83873177 3.07909012 12.30709075 1.98835373 18.87777328-0.89761733 5.4552269-4.12038803 9.96880532-8.14344406 13.98954392-1.29544258 2.06482887-4.55374717 7.1523571-4.74223136 7.47756958-3.71252061 6.16822243-6.60158157 12.2375679-12.50329973 17.29805946-3.38421821 2.91609764-12.14487076 9.72779274-20.38950919 15.43716431 37.04873085 46.21029854 85.52933693 82.833395 141.14839554 105.56814194 0.44340134-2.79327393 1.64305687-5.58654786 3.44138145-8.25699807 4.57460403-6.78079605 8.93059731-6.24701499 17.85655976-8.12026978-0.95709801-10.3619957-13.06797982-10.44310569-21.26240732-9.32224274-9.78495598 1.34565353-20.07742882 4.59314346-28.5538101-3.9782524 4.68043327-2.81644822 17.52980232-13.77788544 15.82185745-2.32515336 9.37245368 0.46812058 18.43205452 0.74852944 27.60443688-0.37233352 3.67235183-0.45035362 15.98407745-4.58387375 19.31962967-2.6967144 1.40049935 0.79256058 2.89369582 7.69540787 4.37453268 9.82435226-2.61328697-0.01776695-5.41505813 1.3047123-8.02293777 1.05443001 6.07243538 7.77497292 12.1240139 1.67163849 19.85032082-1.90029144-8.50650787-5.17095566-3.45837592-17.56070137 4.85887528-7.49688149 6.831007 8.27939988-1.67241097 14.2823124-10.34809114 19.10642624 8.74829292 10.94058037 14.14481163 11.9324398 22.37631799-0.41945458 1.35724068 7.61738777 7.50383377 4.56533432 13.92697334 4.00528909v1.90492629c-2.82880783-0.06952285-5.84532738 1.55885696-8.64709853 1.26377107 6.54519082 10.44310569 2.36763954 12.82851218 11.72464369 16.2389946 7.45053292 2.71061897 28.71139526 0.18307686 31.32854462 7.18866348-14.87711906-2.88906098-32.84877776-3.58197212-46.27132415-10.34654617-5.78816414-2.91532517-12.6856041-12.12633133-18.46372605-6.14273072-5.92411995 6.14273071 4.23780442 16.01574897 9.43502427 19.02377128h-1.2429142c23.53966713 5.00796318 47.91669846 7.69231796 72.92947768 7.69231796 16.16251945 0 32.04154014-1.19656563 47.63165475-3.32319259-5.39420127-2.83112527-1.40436173-4.74532127-5.33085824-7.64519691-7.50383377-5.51625251-20.82750321-10.12330056-29.75887298-13.61103059 11.35385513 0.03012657 38.83237839-10.64317703 44.11688804 5.27987481-3.66308212 0.56004524-7.31921196 1.12472534-10.97843169 1.68940544 6.83873177 4.53520775 14.46847915 8.20369721 22.4790573 10.89809419 72.28832245-14.32170868 136.5838337-50.98883629 185.50088884-102.43420603-0.34761428 0.01081467-0.69445611 0.02008438-1.03511811 0.01081468v0zM828.62872315 486.14993477c0.65274238 1.39354705 2.17220307 1.84853554 2.80022621 2.99411774 1.32093429 2.41398811 1.02662087 4.05163764 2.65191078 6.11646651 1.74116135 2.23631858 4.09335137 2.78554916 6.03690148 4.5305729 0.78329087 0.70527077 1.22128487 1.35801316 1.57971381 2.02388764 5.83296775-16.28148079 10.48172951-33.11682701 13.86594772-50.40098191-0.10428428-0.12282371-0.16376496-0.31053543-0.29122352-0.41095733-0.84740639-0.6751442-6.39224052-1.49783135-7.52855301-1.53722763-4.01378632-0.15372276-6.99554443 2.50977517-9.87610816 5.01723289-2.93618202 2.54299164-6.3829708 5.95501899-8.46788407 9.25040245-2.22782135 3.5209465-0.85281372 7.13999749-0.68982124 11.16382599 0.13054848 3.38112832-1.51559829 8.20678711-0.07956506 11.25188828v0zM833.15620613 304.81578255c-6.79470062 5.90017319-14.81068611 13.81264687-19.63866234 21.45552636-5.15859604 8.15194131-1.98062896 16.54026031-1.60366058 25.87563513 0.31439781 7.84990311-3.51862908 19.02377129-0.18539429 26.09424592 1.53104782 3.2258606 5.04117966 4.29419517 6.48957253 6.93838118 3.06827544 5.59967995 2.39081382 9.38249588 6.15972519 14.1981125 4.04236793 5.17172813 9.4790554 6.441679 13.98413658 10.49408912 4.71905708 4.25170898 4.58773613 7.60502815 7.57876396 13.05098534 2.18301773 3.9852047 7.32230186 10.62618255 12.18735695 14.09769058 2.63723374-17.28801728 4.01146889-34.99780655 4.01146889-53.00808906 0-31.17018699-4.14587974-61.37632371-11.82506561-90.15955925-6.55137063 1.69095039-11.93475723 6.41077995-17.15901376 10.96452712v0zM833.15620613 304.81578255z"  horiz-adv-x="1024" />

    
    <glyph glyph-name="legend" unicode="&#58992;" d="M420.167 820.115h-272.667c-35.525 0-64.591-29.065-64.591-64.591v-274.051c0-35.525 29.066-64.591 64.591-64.591h272.668c35.525 0 64.591 29.066 64.591 64.591v274.051c0 35.526-29.067 64.591-64.592 64.591zM875.998 820.115h-272.668c-35.525 0-64.591-29.065-64.591-64.591v-274.051c0-35.525 29.066-64.591 64.591-64.591h272.668c35.525 0 64.591 29.066 64.591 64.591v274.051c0 35.526-29.067 64.591-64.591 64.591zM420.167 349.226h-272.667c-35.525 0-64.591-29.065-64.591-64.591v-274.052c0-35.525 29.066-64.591 64.591-64.591h272.668c35.525 0 64.591 29.066 64.591 64.591v274.052c0 35.525-29.067 64.591-64.592 64.591zM875.998 349.226h-272.668c-35.525 0-64.591-29.065-64.591-64.591v-274.052c0-35.525 29.066-64.591 64.591-64.591h272.668c35.525 0 64.591 29.066 64.591 64.591v274.052c0 35.525-28.606 64.591-64.591 64.591z"  horiz-adv-x="1024" />

    
    <glyph glyph-name="g" unicode="&#58930;" d="M970.24 473.6h-458.24v-186.88h261.12c-10.24-61.44-46.080-112.64-97.28-145.92-43.52-28.16-99.84-46.080-163.84-46.080-125.44 0-232.96 84.48-271.36 199.68-10.24 25.6-15.36 56.32-15.36 89.6s5.12 64 15.36 92.16c38.4 115.2 145.92 199.68 271.36 199.68 71.68 0 135.68-25.6 186.88-71.68l138.24 138.24c-84.48 79.36-194.56 128-325.12 128-189.44 0-355.84-110.080-435.2-268.8-33.28-64-51.2-138.24-51.2-217.6s17.92-153.6 51.2-217.6c79.36-158.72 245.76-268.8 435.2-268.8 130.56 0 240.64 43.52 322.56 117.76 92.16 84.48 145.92 209.92 145.92 358.4-2.56 33.28-5.12 66.56-10.24 99.84z"  horiz-adv-x="1024" />

    
    <glyph glyph-name="paste" unicode="&#58885;" d="M850.626 444h-317.251c-77.904 0-141.374-63.374-141.374-141.374v-257.251c0-77.904 63.374-141.374 141.374-141.374h317.343c77.904 0 141.374 63.374 141.374 141.374v257.343c-0.091 77.909-63.466 141.283-141.466 141.283zM932 45.374c0-44.813-36.471-81.374-81.374-81.374h-317.251c-44.813 0-81.374 36.471-81.374 81.374v257.343c0 44.813 36.471 81.374 81.374 81.374h317.343c44.813 0 81.374-36.471 81.374-81.374v-257.343h-0.091zM299.187 84h-146.064c-33.657 0-61.123 27.374-61.123 61.123v597.754c0 33.657 27.374 61.123 61.123 61.123h537.749c33.657 0 61.123-27.374 61.123-61.123v-209.813c0-16.594 13.406-30 30-30s30 13.406 30 30v209.813c0.005 66.749-54.369 121.123-121.118 121.123h-537.754c-66.749 0-121.123-54.283-121.123-121.123v-597.749c0-66.754 54.374-121.127 121.123-121.127h146.064c16.594 0 30 13.406 30 30s-13.406 30-30 30zM662 684h-480c-16.594 0-30-13.406-30-30s13.406-30 30-30h480c16.594 0 30 13.406 30 30s-13.406 30-30 30zM362 504h-180c-16.594 0-30-13.406-30-30s13.406-30 30-30h180c16.594 0 30 13.406 30 30s-13.406 30-30 30zM302 324h-120c-16.594 0-30-13.406-30-30s13.406-30 30-30h120c16.594 0 30 13.406 30 30s-13.406 30-30 30z"  horiz-adv-x="1024" />

    
    <glyph glyph-name="plot-arrow-up" unicode="&#58893;" d="M879.018667 789.077333l-403.029334-41.685333c-23.338667-2.432-28.970667-17.834667-12.373333-34.432l78.464-78.421333a49.493333 49.493333 0 0 0 3.712-63.530667L112.256 20.949333000000024a26.88 26.88 0 0 1 1.578667-34.56 27.392 27.392 0 0 1 35.328-2.304l549.845333 433.834667a49.109333 49.109333 0 0 0 63.530667-3.669333l78.421333-78.378667c16.256-16.256 32-11.050667 34.432 12.373333l41.685333 402.773334c2.389333 23.338667-14.634667 40.490667-38.058666 38.058666z"  horiz-adv-x="1024" />

    
    <glyph glyph-name="fullscreen" unicode="&#58888;" d="M763.191 704.851l71.332-71.55 76.913 77.161 80.527-80.789v234.329h-233.564l81.703-81.974-76.913-77.175zM910.251 56.347l-76.927 77.159-71.34-71.565 76.921-77.159-80.519-80.782h233.587v234.322l-81.719-81.974zM260.854 63.157l-71.34 71.558-76.913-77.168-80.512 80.782v-234.329h233.564l-81.712 81.982 76.913 77.175zM190.707 634.501l71.347 71.557-76.921 77.168 80.527 80.774h-233.579v-234.314l81.719 81.974 76.905-77.161zM793.436 268.087v198.699c0 79.582-53.102 165.591-132.429 165.591h-297.952c-79.319 0-132.422-52.892-132.422-132.474v-231.817c0-79.582 53.102-132.474 132.422-132.474h297.952c79.327 0 132.429 52.892 132.429 132.474z"  horiz-adv-x="1024" />

    
    <glyph glyph-name="layers" unicode="&#58988;" d="M976 224c-6.496 0-12.688-1.328-18.352-3.664v0.016l-0.208-0.08-0.208-0.08L512 35.952 66.784 220.176a1.12 1.12 0 0 1-0.208 0.08l-0.208 0.08-0.016-0.016a48 48 0 0 1-36.704-88.656v-0.016l463.584-191.824a1.12 1.12 0 0 1 0.208-0.08l0.208-0.08 0.016 0.016a47.6 47.6 0 0 1 36.688-0.016l0.016-0.016 0.208 0.08a1.12 1.12 0 0 0 0.208 0.08l463.568 191.824v0.016A48 48 0 0 1 976 224zM29.664 547.664v-0.016l463.584-191.824 0.208-0.08 0.208-0.08 0.016 0.016a47.456 47.456 0 0 1 36.672-0.016l0.016-0.016 0.208 0.08a1.12 1.12 0 0 0 0.208 0.08l463.568 191.824v0.016A48.048 48.048 0 0 1 1024 592a48 48 0 0 1-29.648 44.336v0.016L530.784 828.176a1.12 1.12 0 0 1-0.208 0.08l-0.208 0.08-0.016-0.016a47.744 47.744 0 0 1-36.688 0.016l-0.016 0.016-0.208-0.08a1.12 1.12 0 0 0-0.208-0.08L29.648 636.352v-0.016A48 48 0 0 1 0 592a48 48 0 0 1 29.664-44.336zM976 432c-6.496 0-12.688-1.328-18.352-3.664v0.016l-0.208-0.096a1.12 1.12 0 0 0-0.208-0.08L512 243.952 66.784 428.176a1.12 1.12 0 0 1-0.208 0.08l-0.208 0.096-0.016-0.016a48 48 0 0 1-36.704-88.672v-0.016l463.584-191.824 0.208-0.08 0.208-0.08 0.016 0.016a47.6 47.6 0 0 1 36.688-0.016l0.016-0.016 0.208 0.08a1.12 1.12 0 0 0 0.208 0.08l463.568 191.824v0.016A48 48 0 0 1 976 432z"  horiz-adv-x="1024" />

    
    <glyph glyph-name="layer-compare" unicode="&#58959;" d="M714.010 190.955l201.031 197.209c6.504 6.33 10.539 15.169 10.539 24.95 0 17.401-12.771 31.819-29.452 34.393l-278.062 40.968-124.33 253.165c-5.827 11.425-17.506 19.112-30.98 19.112s-25.153-7.688-30.889-18.916l-124.353-253.361-277.867-40.943c-16.871-2.637-29.628-17.066-29.628-34.474 0-9.748 4-18.561 10.447-24.889l201.104-197.214-47.767-277.731c-0.393-1.952-0.617-4.197-0.617-6.494 0-19.032 15.428-34.46 34.46-34.46 5.974 0 11.594 1.52 16.492 4.195l248.344 130.928 248.593-131.018c4.811-2.752 10.574-4.375 16.716-4.375 18.844 0 34.119 15.276 34.119 34.119 0 2.516-0.272 4.969-0.789 7.33l-47.384 277.505zM1062.504 582.644l-277.867 40.943-124.262 253.165c-5.827 11.425-17.506 19.112-30.98 19.112s-25.153-7.688-30.889-18.916l-57.343-117.566c-2.068-4.315-3.277-9.38-3.277-14.727 0-0.1 0-0.201 0.001-0.301-0-0.006-0-0.030-0-0.055 0-20.546 16.54-37.229 37.032-37.46 15.421 0.067 28.588 9.552 34.066 22.989l20.547 41.837 88.71-181.514c11.207-22.345 32.869-37.995 58.392-40.586l196.069-29.017-18.22-17.742c-7.013-6.794-11.365-16.299-11.365-26.82 0-20.484 16.5-37.114 36.935-37.324 0.045-0 0.074-0 0.103-0 10.112 0 19.247 4.181 25.771 10.909l75.754 73.707c6.453 6.333 10.453 15.146 10.453 24.894 0 17.408-12.756 31.837-29.431 34.448zM896.071 235.31c-3.126 17.525-18.249 30.657-36.44 30.657-20.361 0-36.879-16.452-36.985-36.788 0.042-2.673 0.303-5.245 0.766-7.746l18.204-106.905-17.81 9.553c-4.84 2.581-10.586 4.096-16.685 4.096-0.132 0-0.263-0.001-0.394-0.002-0.006 0-0.037 0-0.067 0-20.464 0-37.053-16.589-37.053-37.053 0-15.063 8.988-28.027 21.894-33.821-0.516 0.588-1.267 0.588-2.017 1.271l88.71-47.085c4.718-2.585 10.338-4.105 16.312-4.105 19.032 0 34.46 15.428 34.46 34.46 0 2.297-0.225 4.541-0.653 6.712l-31.968 186.755zM191.986 508.946l81.886 11.601c12.142 6.399 20.279 18.936 20.279 33.372 0 20.578-16.531 37.295-37.037 37.595-2.675-0.163-5.146-0.567-7.526-1.193l-53.371-7.678c-16.875-2.598-29.646-17.017-29.646-34.418 0-9.781 4.035-18.62 10.531-24.942l14.884-14.338z"  horiz-adv-x="1092" />

    
    <glyph glyph-name="marker" unicode="&#58904;" d="M511.905599 895.997761C291.242001 895.997761 112.318654 722.703751 112.318654 508.916899c0-4.158033 1.983062-103.63097 36.334809-174.573405 98.417436-219.895962 362.900303-463.396755 363.252136-462.149346 0.447788-0.831607 263.811184 241.325823 362.708394 460.837966 29.362108 52.039379 36.910537 167.408795 36.910537 175.91677 0.031985 213.754867-178.923347 387.048877-399.618931 387.048877z m0.06397-511.885814a111.883065 111.883065 0 0 0-111.947035 111.91505 111.947035 111.947035 0 1 0 111.947035-111.91505zM511.969569 671.943767a175.916769 175.916769 0 1 1 0-351.833539 175.916769 175.916769 0 0 1 0 351.833539z m0-287.83182a111.883065 111.883065 0 0 0-111.947035 111.91505 111.947035 111.947035 0 1 0 111.947035-111.91505z"  horiz-adv-x="1024" />

    
    <glyph glyph-name="gotop" unicode="&#58919;" d="M872.69353344 373.69925344L541.29748719 705.46450312A36.92023688 36.92023688 0 0 1 514.78875687 716.24521219c-1.25528813 0.14768063-2.36289563 0.738405-3.69202312 0.73840406a36.69871594 36.69871594 0 0 1-14.98961625-3.32282062 36.40335375 36.40335375 0 0 1-12.8482425-8.12245219l-299.05391906-296.91254531a36.77255625 36.77255625 0 1 1 52.20521531-51.98369344l237.76632563 236.141835v-646.47334781c0-20.30613 16.54026656-36.69871594 36.92023687-36.69871594s36.92023688 16.392585 36.92023688 36.69871594v648.31935937L820.26679719 321.93708188000005a36.92023688 36.92023688 0 0 1 52.20521531-0.14768063 36.47719406 36.47719406 0 0 1 0.14768063 51.90985219z m44.304285 416.68179375H105.19564906a36.84639656 36.84639656 0 0 0-36.92023687 36.69871594c0 20.23228969 16.54026656 36.69871594 36.92023687 36.698715H916.99781844a36.77255625 36.77255625 0 1 0 0-73.39743094z"  horiz-adv-x="1024" />

    
    <glyph glyph-name="hand" unicode="&#58973;" d="M363.141-48.616c74.885-24.149 143.565-20.862 217.89 3.543 61.105 20.070 108.667 77.923 143.838 135.997 51.702 85.364 83.282 153.392 134.731 238.94 6.229 10.349 11.595 22.282 13.899 34.277 6.018 31.321-7.629 60.59-31.887 72.83-25.382 12.8-58.283 4.25-76.612-21.716-24.334-34.471-37.325-69.861-61.034-104.858l-4.195 0.874v20.040c0 142.759 0.041 208.009-0.038 350.768-0.017 30.59-11.244 50.975-32.082 59.313-35.188 14.087-68.297-11.288-68.772-53.931-0.652-58.105-0.181-86.535-0.191-144.647-0.007-30.321 0.014-60.645-0.007-90.965-0.014-13.507-1.789-26.931-17.469-27.095-15.65-0.16-17.667 12.715-17.654 26.586 0.116 111.176 0.085 192.659 0.082 303.831 0 32.205-12.923 54.204-36.284 61.928-28.942 9.564-59.027-10.622-63.727-43.124-1.082-7.427-0.966-15.111-0.973-22.675-0.048-106.752-0.017-183.818-0.003-290.57 0-2.526 0.034-5.052-0.017-7.578-0.283-13.896-1.277-28.727-18.104-28.46-16.896 0.266-17.231 15.2-17.227 29.037 0.024 97.28 0.236 164.867-0.242 262.141-0.061 12.312-1.812 25.528-6.233 36.7-8.24 20.815-29.809 32.287-50.121 29.696-20.944-2.673-38.683-20.299-42.878-43.479-1.324-7.352-1.389-15.060-1.393-22.607-0.072-106.752-0.017-183.815-0.075-290.567-0.007-7.561 1.372-16.323-1.604-22.351-3.267-6.618-11.1-10.902-16.766-10.865-5.492 0.034-11.51 5.199-15.698 11.452-1.987 2.963-1.048 12.308-1.048 18.613-0.020 69.485 0.051 109.274 0.051 178.756 0 44.305-19.872 71.421-51.633 70.574-31.775-0.85-49.93-27.102-49.862-70.485 0.242-156.655 0.253-202.8 0.253-392.455s173.087-257.471 173.087-257.471z"  horiz-adv-x="1024" />

    
    <glyph glyph-name="search" unicode="&#59000;" d="M968.2823525 88.51764749999995L751.02588219 305.77411781c72.93176438 144.12705844 44.9223525 322.48941187-69.76941188 437.15294063-71.26588219 71.26588219-166.02352969 110.52705844-266.82352875 110.51294156-100.78588219 0-195.54352969-39.24705844-266.82352968-110.51294156-147.12-147.12-147.12-386.49882375-1e-8-533.63294063 71.19529406-71.19529406 165.85411781-110.38588219 266.54117625-110.38588219a376.5176475 376.5176475 0 0 1 194.28705938 53.71764657l211.9623525-211.97647032a70.81411781 70.81411781 0 0 1 49.6376475-20.78117625c17.35058813 0 33.47294156 6.56470594 45.4023525 18.49411688l55.11529406 55.10117719c25.59529406 25.56705844 24.56470594 68.21647031-2.27294156 95.05411781zM605.26117625 285.30352969c-50.97882375-50.97882375-118.72941187-79.04470594-190.81411781-79.04470594s-139.84941188 28.06588219-190.81411688 79.04470594c-105.20470594 105.20470594-105.20470594 276.42352969 0 381.62823468 50.96470594 50.97882375 118.72941187 79.03058813 190.81411688 79.03058813s139.83529406-28.05176438 190.81411781-79.03058813c105.20470594-105.20470594 105.20470594-276.40941187 0-381.62823468z"  horiz-adv-x="1024" />

    
    <glyph glyph-name="database" unicode="&#58985;" d="M512 452.57142844c161.24571469 0 323.04 28.93714312 411.42857156 91.06285687V452.57142844c0-75.53142844-184.28571469-137.14285688-411.42857156-137.14285688S100.57142844 377.03999999999996 100.57142844 452.57142844V543.63428531C188.96 481.47428531 350.75428531 452.57142844 512 452.57142844z m0-411.42857156c161.24571469 0 323.04 28.93714312 411.42857156 91.06285781V41.142856879999954c0-75.53142844-184.28571469-137.14285688-411.42857156-137.14285688S100.57142844-34.388571559999946 100.57142844 41.142856879999954v91.06285781C188.96 70.04571468999995 350.75428531 41.142856879999954 512 41.142856879999954z m0 205.71428625c161.24571469 0 323.04 28.93714312 411.42857156 91.06285687V246.85714312000005c0-75.53142844-184.28571469-137.14285688-411.42857156-137.14285781S100.57142844 171.32571469000004 100.57142844 246.85714312000005v91.06285688C188.96 275.76 350.75428531 246.85714312000005 512 246.85714312000005z m0 617.14285687c227.14285688 0 411.42857156-61.61142844 411.42857156-137.14285687v-68.57142844c0-75.53142844-184.28571469-137.14285688-411.42857156-137.14285781S100.57142844 582.75428531 100.57142844 658.28571469V726.85714312c0 75.53142844 184.28571469 137.14285688 411.42857156 137.14285688z"  horiz-adv-x="1024" />

    
    <glyph glyph-name="pie" unicode="&#58889;" d="M467.285 333.483v423.253h-0.569c-231.879 0-419.726-187.619-419.726-418.93s187.847-418.93 419.385-418.93c116.622 0 221.981 47.559 297.984 124.245l-297.074 290.361zM830.691 70.315l-315.847 317.781 318.691 315.961 18.091-17.749c80.896-79.303 125.497-185.117 125.497-297.984 0-114.347-45.511-221.070-128.114-300.487l-18.318-17.522zM587.89 387.869l242.915-244.509c61.213 67.357 94.663 153.373 94.663 245.077 0 90.339-32.654 175.559-92.387 242.574l-245.191-243.143zM538.283 849.010v-388.323l274.887 274.659c-70.429 70.315-167.595 113.664-274.887 113.664z"  horiz-adv-x="1024" />

    
    <glyph glyph-name="show" unicode="&#59031;" d="M512.3 523.6c-76.8 0-140.8-61.4-140.8-140.8S433 242 512.3 242s140.8 61.4 140.8 140.8-64 140.8-140.8 140.8zM512.3 730.9c-233 0-432.6-143.4-512-348.2 79.4-204.8 279-348.2 512-348.2S945 178 1024.3 382.79999999999995c-79.3 204.8-279 348.1-512 348.1z m0-581.1c-128 0-233 105-233 233s105 233 233 233 233-105 233-233-105-233-233-233z"  horiz-adv-x="1024" />

    
    <glyph glyph-name="change-skin" unicode="&#59043;" d="M274.773 819.2h87.040c6.827-3.413 15.36-5.12 22.187-10.24 8.533-5.12 13.653-13.653 20.48-20.48 8.533-10.24 23.893-20.48 37.547-25.6 15.36-6.827 32.427-10.24 51.2-13.653 6.827 0 11.947 0 18.773-1.707 8.533-1.707 18.773 0 25.6 1.707 35.84 6.827 54.613 11.947 76.8 30.72 8.533 6.827 13.653 18.773 23.893 25.6 5.12 3.413 10.24 5.12 17.067 8.533 5.12 1.707 8.533 0 11.947 3.413h25.6c23.893 0 61.44 3.413 76.8-5.12 11.947-6.827 20.48-15.36 29.013-23.893 11.947-11.947 25.6-23.893 37.547-35.84 40.96-37.547 80.213-76.8 121.173-114.347 11.947-13.653 27.307-23.893 39.253-37.547 10.24-10.24 22.187-18.773 27.307-34.133v-6.827c3.413-17.067-5.12-29.013-13.653-39.253-34.133-32.427-68.267-63.147-100.693-95.573-11.947-13.653-27.307-32.427-49.493-35.84-29.013-5.12-46.080 11.947-59.733 25.6-5.12 5.12-8.533 10.24-13.653 13.653h-1.707v-440.32c-1.707-11.947-10.24-22.187-17.067-29.013-20.48-15.36-56.32-11.947-92.16-11.947h-344.747c-25.6 0-51.2-1.707-66.56 6.827-8.533 5.12-17.067 15.36-20.48 23.893-3.413 10.24-3.413 25.6-3.413 40.96v406.187h-1.707c-15.36-11.947-25.6-29.013-46.080-35.84-17.067-6.827-37.547 0-47.787 6.827-6.827 5.12-13.653 11.947-18.773 17.067-15.36 13.653-30.72 29.013-46.080 42.667-6.827 6.827-13.653 13.653-22.187 20.48-8.533 6.827-17.067 15.36-25.6 23.893-10.24 10.24-20.48 17.067-27.307 30.72-1.707 5.12-6.827 15.36-5.12 25.6 5.12 22.187 18.773 34.133 32.427 46.080 8.533 6.827 17.067 15.36 25.6 23.893l143.36 136.533c8.533 8.533 17.067 17.067 25.6 23.893 13.653 15.36 23.893 30.72 47.787 32.427z"  horiz-adv-x="1024" />

    
    <glyph glyph-name="main-map" unicode="&#59089;" d="M872 804h-720c-66 0-120-54-120-120v-624c0-66 54-120 120-120h720c66 0 120 54 120 120v624c0 66-54 120-120 120M152 732h720c26.040 0 48-21.96 48-48v-607.8l-217.44 235.86c-6.598 7.136-16.009 11.589-26.46 11.589s-19.862-4.453-26.438-11.566l-72.502-78.624-137.64 149.22c-13.56 14.76-39.3 14.76-52.92 0l-282.6-306.6v607.92c0 26.040 21.96 48 48 48M698.78 368.010c59.58 0 108 48.48 108 108 0 59.58-48.42 108-108 108-59.619-0.068-107.932-48.381-108-107.993 0-59.527 48.48-108.007 108-108.007z"  horiz-adv-x="1024" />

    
    <glyph glyph-name="print" unicode="&#58958;" d="M928 224h-64v-192c0-70.692-57.307-128-128-128 0 0 0 0 0 0h-384c-70.692 0-128 57.308-128 128v192h-64c-70.692 0-128 57.308-128 128 0 0 0 0 0 0v128c0 70.692 57.308 128 128 128h768c0 0 0 0 0 0 70.692 0 128-57.308 128-128v-128c0-70.692-57.308-128-128-128 0 0 0 0 0 0zM288-32h512v448h-512v-448zM864 544c0 0 0 0 0 0-35.347 0-64-28.654-64-64 0-35.347 28.654-64 64-64 35.347 0 64 28.654 64 64 0 35.347-28.654 64-64 64zM352 96h384v-64h-384v64zM352 224h384v-64h-384v64zM352 352h256v-64h-256v64zM864 736c0 35.347-28.654 64-64 64 0 0 0 0 0 0h-512c-35.347 0-64-28.654-64-64v-64h-64v64c0 70.692 57.308 128 128 128 0 0 0 0 0 0h512c70.692 0 128-57.308 128-128v-64h-64v64z"  horiz-adv-x="1092" />

    
    <glyph glyph-name="edit" unicode="&#59035;" d="M99.095 327.202c-17.476-17.476-26.943-40.778-26.943-64.807v-241.027c0-48.060 24.758-72.818 72.818-72.818l243.212 1.456c24.758 0 48.060 10.194 64.807 26.943l386.662 387.391-352.438 352.438-388.118-389.575zM423.863 32.29c-13.836-13.836-35.681-13.836-48.788 0l-219.909 219.909c-13.836 13.836-13.836 35.681 0 48.788 13.836 13.836 35.681 13.836 48.788 0l219.909-219.909c13.107-13.107 13.107-34.953 0-48.788zM975.822 701.486l-150.733 151.461c-55.342 55.342-145.635 55.342-201.706 0l-83.012-83.012 352.438-352.438 82.284 83.012c56.798 55.342 56.798 145.635 0.729 200.977z"  horiz-adv-x="1024" />

    
    <glyph glyph-name="plot-arrow-down" unicode="&#58894;" d="M524.43864178 211.7060077l135.99205452-64.90005807c39.26334578-18.73722785 36.96958578-42.62995437-6.91040712-52.5186086l-478.57057185-107.82371081c-43.34720948-9.76365037-71.43424 17.66923378-61.54679941 61.54679941l107.82371082 478.57057185c9.76365037 43.34720948 33.39666015 46.9686803 52.51860859 6.9104071l64.90005808-135.9920545 546.6321351 396.36779614c71.37962667 51.75644918 87.36434252 35.95741867 35.52900741-35.52900741l-396.36779614-546.63213511z"  horiz-adv-x="1024" />

    
    <glyph glyph-name="search-light" unicode="&#58974;" d="M869.9099256-13.937889280000036s-108.55350676 191.42984691 0 813.94352736l265.9564152 0s346.95438032-50.31093538 346.95438034-415.0095518c0 0 17.74423609-265.9564152-298.31339933-380.98131882l-314.59739621-17.95265674zM670.54714815 102.75696868l-314.59739623 0c-32.35698411 0-58.45228658 26.09400795-58.45228658 58.45228658 0 30.68702973 26.09400795 56.78233221 58.45228658 56.78233219l314.59739623-1e-8c32.35698411 0 58.24257138-26.09400795 58.24257138-56.78233218 0-32.35698411-25.88558729-58.45228658-58.24257138-58.45228658zM670.54714815 342.82779660999995l-314.59739623 1e-8c-32.35698411 0-58.45228658 25.88558729-58.45228658 58.24257139 0 32.56669929 26.09400795 58.45228658 58.45228658 58.45228655l314.59739623 0c32.35698411 0 58.24257138-25.88558729 58.24257138-58.45228656 0-32.35698411-25.88558729-58.24257138-58.24257138-58.24257139zM670.54714815 584.35886372l-314.59739623 0c-32.35698411 0-58.45228658 25.88558729-58.45228658 56.78233221 0 32.35698411 26.09400795 58.24257138 58.45228658 58.24257136l314.59739623 0c32.35698411 0 58.24257138-25.88558729 58.24257138-58.24257136 0-30.8954504-25.88558729-56.78233221-58.24257138-56.78233221z"  horiz-adv-x="1835" />

    
    <glyph glyph-name="plot-fill" unicode="&#58908;" d="M1011.2 518.4L598.4 729.6 12.8 432l214.4-108.8L12.8 214.39999999999998l412.8-208L1008 300.79999999999995 793.6 409.6l217.6 108.8zM598.4 684.8L928 518.4 428.8 265.6 99.2 432l499.2 252.8z"  horiz-adv-x="1024" />

    
    <glyph glyph-name="measure-length" unicode="&#58891;" d="M361-9v-54.994c0-2.221 1.79-4.006 4-4.006h293a4 4 0 0 1 4 4.006V831.994c0 2.221-1.79 4.006-4 4.006H365a4 4 0 0 1-4-4.006V777h219.996c11.048 0 20.004-8.95 20.004-20.001V735c0-11.046-8.958-20.001-20.004-20.001H361v-59h100.006c11.042 0 19.994-8.95 19.994-20.001V614c0-11.046-8.957-20.001-19.994-20.001H361v-59h100.006c11.042 0 19.994-8.95 19.994-20.001V493c0-11.046-8.957-20.001-19.994-20.001H361v-58h219.996c11.048 0 20.004-8.95 20.004-20.001V373c0-11.046-8.958-20.001-20.004-20.001H361v-58h100.006c11.042 0 19.994-8.95 19.994-20.001V253c0-11.046-8.957-20.001-19.994-20.001H361v-58h100.006c11.042 0 19.994-8.95 19.994-20.001V133c0-11.046-8.957-20.001-19.994-20.001H361v-60h219.996c11.048 0 20.004-8.95 20.004-20.001V11c0-11.046-8.958-20.001-20.004-20.001H361zM301 876.004C301 887.048 309.96 896 321 896h382c11.046 0 20-8.95 20-19.996v-984.008c0-11.044-8.96-19.996-20-19.996H321c-11.046 0-20 8.95-20 19.996V876.004z"  horiz-adv-x="1024" />

    
    <glyph glyph-name="d" unicode="&#58936;" d="M124.416 888.05888h276.54656c307.82464 0 498.62656-159.40608 498.62656-499.95264 0-339.22048-190.80192-508.16512-487.7568-508.16512H124.416V888.05888z m264.22784-846.04928c188.02688 0 305.16736 100.88448 305.16736 346.09664 0 246.59456-117.14048 339.21536-305.16736 339.21536h-62.6688v-685.312h62.6688z"  horiz-adv-x="1024" />

    
    </font>
</defs>
</svg>
